<svg width="46" height="46" viewBox="0 0 46 46" fill="none" xmlns="http://www.w3.org/2000/svg">
    <path
        d="M27.0563 44.9383L27.0615 44.9346L27.0556 44.9383H27.0563ZM27.8639 43.9142C28.5483 43.0458 29.264 42.1997 29.9336 41.3187C31.8084 38.9672 33.3952 36.3999 34.6604 33.6716C35.5666 31.547 36.0694 28.7891 35.1951 26.5903C34.1346 23.9281 31.3834 22.8498 28.6692 23.1494C26.8299 23.3616 25.0416 23.8929 23.3848 24.7193C23.5546 24.6311 23.734 24.3196 23.8631 24.1757C24.0225 23.9963 24.1857 23.8213 24.351 23.6566C24.6709 23.3272 25.0182 23.0255 25.3892 22.7549C26.1202 22.2431 26.9442 21.8793 27.8149 21.6841L27.9247 21.6581C26.9784 21.4514 26.1361 20.9156 25.5479 20.1461C24.9596 19.3765 24.6635 18.4232 24.7123 17.4558C24.7611 16.4884 25.1516 15.5698 25.8142 14.8633C26.4769 14.1568 27.3688 13.7085 28.3311 13.598C29.2934 13.4875 30.2636 13.7221 31.0692 14.26C31.8747 14.7979 32.4632 15.6042 32.73 16.5353C32.9967 17.4665 32.9244 18.4621 32.5258 19.3449C32.1273 20.2277 31.4284 20.9405 30.5536 21.3563C31.4969 21.3556 32.4299 21.5529 33.2922 21.9354C35.0417 22.7247 36.4757 24.0784 37.3642 25.7798C37.5919 26.2618 37.766 26.7673 37.8833 27.2874C38.4558 29.9059 37.6052 32.6682 36.3059 34.936C35.5602 36.2491 34.6818 37.4824 33.6845 38.6164C32.7849 39.6264 31.7957 40.5556 30.8072 41.4789C29.6393 42.7182 28.3859 43.8742 27.0563 44.9383V44.9383L27.8639 43.9142ZM27.0674 44.9339H27.0622H27.0674ZM27.0756 44.9279L27.0674 44.9339L27.0756 44.9279ZM27.0793 44.9279H27.0756H27.0793ZM27.0793 44.9279H27.0926H27.0793Z"
        fill="#6EBEFB" />
    <path
        d="M19.4864 44.937C19.278 44.7946 19.0756 44.6403 18.8731 44.4735L18.8494 44.4579V44.4535C17.6792 43.505 16.6039 42.2895 15.5286 41.2862C14.486 40.314 13.4433 39.3336 12.4941 38.268C11.4419 37.0725 10.5153 35.7721 9.72877 34.3873C8.3576 31.995 7.46326 29.0821 8.06616 26.3175C8.18973 25.7701 8.3743 25.2383 8.61641 24.7321C9.55266 22.9373 11.0648 21.5093 12.9101 20.6771C13.8622 20.2565 14.8943 20.0475 15.935 20.0646C15.01 19.6245 14.2719 18.8696 13.8527 17.935C13.4335 17.0004 13.3606 15.9471 13.6471 14.9637C13.9335 13.9803 14.5607 13.1309 15.4162 12.5676C16.2717 12.0043 17.2998 11.7639 18.3164 11.8894C19.333 12.0149 20.2717 12.4982 20.9646 13.2526C21.6574 14.007 22.0592 14.9834 22.0978 16.007C22.1365 17.0306 21.8097 18.0345 21.1757 18.8391C20.5418 19.6437 19.6422 20.1964 18.638 20.3983L18.6877 20.4102C19.4275 20.5915 20.1352 20.8849 20.7864 21.28C20.865 21.3268 20.948 21.3638 21.0266 21.412C21.3723 21.6224 21.7015 21.8587 22.0114 22.1188C22.2694 22.3329 22.51 22.5672 22.7308 22.8195C22.912 23.0291 23.0814 23.2487 23.238 23.4773C24.3407 25.1346 24.8821 27.1022 24.7827 29.0903C24.7975 29.5797 24.3652 27.5827 22.9199 25.5856C22.1495 24.4331 21.0949 23.4987 19.8579 22.8727C18.621 22.2467 17.2436 21.9502 15.8586 22.012C15.7103 22.0238 15.5687 22.0387 15.4203 22.0631C14.4264 22.2086 13.4873 22.6102 12.6955 23.2285C11.9037 23.8467 11.2864 24.6603 10.9042 25.5893C9.97942 27.9082 10.5134 30.8167 11.4678 33.0577C12.8035 35.9341 14.4771 38.6412 16.4534 41.1216C17.1074 41.984 17.803 42.8124 18.4756 43.66L18.4712 43.6466L19.5272 44.9362C19.5272 44.9362 19.4434 44.9043 19.4864 44.937Z"
        fill="#0566B1" />
    <path
        d="M45.4755 12.878L44.2045 12.0088C44.2045 12.0088 40.9416 9.82416 40.8941 9.78857L29.1142 1.84336L28.6618 1.56527C28.5135 1.47257 28.3593 1.37988 28.1895 1.29015C27.9759 1.17224 27.7542 1.06766 27.5124 0.959393L27.2084 0.830374C26.9859 0.737677 26.7553 0.653884 26.5083 0.575277C26.3533 0.522625 26.1932 0.478133 26.0426 0.438088C25.8565 0.386919 25.6666 0.338713 25.4879 0.300152L24.4631 0.122159C24.2547 0.0962037 24.0507 0.0821137 23.8416 0.0709901L22.7537 0.0554199L22.5194 0.0709901C22.314 0.0821137 22.1115 0.096213 21.7778 0.136258C21.5731 0.165179 21.3692 0.193356 21.1163 0.244525C21.0422 0.262322 20.9725 0.280113 20.8939 0.297911C20.7018 0.337956 20.5134 0.38542 20.3229 0.435847C20.1664 0.480342 20.0092 0.52337 19.8431 0.578988C19.6117 0.653146 19.3848 0.737681 19.1475 0.834085L18.8368 0.967563C18.6143 1.0699 18.3918 1.1752 18.1627 1.29904C18.0269 1.36949 17.8964 1.44735 17.734 1.54524L17.6131 1.6194C17.5471 1.66167 17.1052 1.9316 17.0837 1.94495C16.3502 2.44625 15.6161 2.94089 14.8219 3.47334C14.8219 3.47334 6.16475 9.32584 5.4736 9.79081C5.4736 9.79081 2.27446 11.931 2.16397 12.0081L0.816527 12.9321C0.749155 12.9715 0.698584 13.0343 0.674393 13.1085C0.650202 13.1827 0.654069 13.2632 0.685267 13.3348C0.727398 13.4101 0.789698 13.4721 0.865161 13.5139C0.940624 13.5556 1.02626 13.5756 1.11242 13.5713H5.09095C5.19652 13.5738 5.30023 13.5432 5.38758 13.4838L15.1941 6.86677C16.618 5.90717 18.0418 4.94832 19.4567 3.97464C19.6748 3.83054 19.9006 3.69835 20.133 3.57864C20.2969 3.49262 20.4608 3.41549 20.6173 3.35172C20.7508 3.29462 20.8857 3.2427 21.0184 3.19375C21.1912 3.13443 21.37 3.07881 21.5739 3.02468C21.7437 2.98389 21.918 2.95052 22.1071 2.91566C22.2732 2.88971 22.4423 2.86377 22.6106 2.85116C22.9908 2.82448 23.3724 2.82448 23.7526 2.85116C23.9269 2.86377 24.0997 2.88972 24.2754 2.9179C24.4512 2.94608 24.6299 2.98391 24.8138 3.03063C24.9977 3.07735 25.1757 3.1322 25.3411 3.19079C25.4842 3.23899 25.6199 3.29313 25.7371 3.34429C25.9072 3.41432 26.0736 3.49328 26.2354 3.58086C26.4707 3.69812 26.6982 3.83066 26.9162 3.9776C28.3449 4.95796 29.7787 5.93215 31.2173 6.90015L40.9794 13.4801C41.0671 13.5387 41.1705 13.5693 41.276 13.5676H45.2805C45.3887 13.5779 45.4967 13.5457 45.5816 13.4777C45.6664 13.4097 45.7215 13.3114 45.7351 13.2035C45.7294 13.1295 45.7016 13.0589 45.6553 13.0009C45.609 12.9428 45.5464 12.9 45.4755 12.878Z"
        fill="#0566B1" />
    <path
        d="M45.4755 12.878L44.2045 12.0088C44.2045 12.0088 40.9416 9.82416 40.8941 9.78857L29.1142 1.84336L28.6618 1.56527C28.5135 1.47257 28.3593 1.37988 28.1895 1.29015C27.9759 1.17224 27.7542 1.06766 27.5124 0.959393L27.2084 0.830374C26.9859 0.737677 26.7553 0.653884 26.5083 0.575277C26.3533 0.522625 26.1932 0.478133 26.0426 0.438088C25.8565 0.386919 25.6666 0.338713 25.4879 0.300152L24.4631 0.122159C24.2547 0.0962037 24.0507 0.0821137 23.8416 0.0709901L22.7537 0.0554199L22.5194 0.0709901C22.314 0.0821137 22.1115 0.096213 21.7778 0.136258C21.5731 0.165179 21.3692 0.193356 21.1163 0.244525C21.0422 0.262322 20.9725 0.280113 20.8939 0.297911C20.7018 0.337956 20.5134 0.38542 20.3229 0.435847C20.1664 0.480342 20.0092 0.52337 19.8431 0.578988C19.6117 0.653146 19.3848 0.737681 19.1475 0.834085L18.8368 0.967563C18.6143 1.0699 18.3918 1.1752 18.1627 1.29904C18.0269 1.36949 17.8964 1.44735 17.734 1.54524L17.6131 1.6194C17.5471 1.66167 17.1052 1.9316 17.0837 1.94495C16.3502 2.44625 15.6161 2.94089 14.8219 3.47334C14.8219 3.47334 6.16475 9.32584 5.4736 9.79081C5.4736 9.79081 2.27446 11.931 2.16397 12.0081L0.816527 12.9321C0.749155 12.9715 0.698584 13.0343 0.674393 13.1085C0.650202 13.1827 0.654069 13.2632 0.685267 13.3348C0.727398 13.4101 0.789698 13.4721 0.865161 13.5139C0.940624 13.5556 1.02626 13.5756 1.11242 13.5713H5.09095C5.19652 13.5738 5.30023 13.5432 5.38758 13.4838L15.1941 6.86677C16.618 5.90717 18.0418 4.94832 19.4567 3.97464C19.6748 3.83054 19.9006 3.69835 20.133 3.57864C20.2969 3.49262 20.4608 3.41549 20.6173 3.35172C20.7508 3.29462 20.8857 3.2427 21.0184 3.19375C21.1912 3.13443 21.37 3.07881 21.5739 3.02468C21.7437 2.98389 21.918 2.95052 22.1071 2.91566C22.2732 2.88971 22.4423 2.86377 22.6106 2.85116C22.9908 2.82448 23.3724 2.82448 23.7526 2.85116C23.9269 2.86377 24.0997 2.88972 24.2754 2.9179C24.4512 2.94608 24.6299 2.98391 24.8138 3.03063C24.9977 3.07735 25.1757 3.1322 25.3411 3.19079C25.4842 3.23899 25.6199 3.29313 25.7371 3.34429C25.9072 3.41432 26.0736 3.49328 26.2354 3.58086C26.4707 3.69812 26.6982 3.83066 26.9162 3.9776C28.3449 4.95796 29.7787 5.93215 31.2173 6.90015L40.9794 13.4801C41.0671 13.5387 41.1705 13.5693 41.276 13.5676H45.2805C45.3887 13.5779 45.4967 13.5457 45.5816 13.4777C45.6664 13.4097 45.7215 13.3114 45.7351 13.2035C45.7294 13.1295 45.7016 13.0589 45.6553 13.0009C45.609 12.9428 45.5464 12.9 45.4755 12.878Z"
        fill="black" fill-opacity="0.2" />
    <path
        d="M23.51 28.3191C23.5459 28.7782 23.5575 29.2388 23.5449 29.6991V45.8929H24.8634V43.0245C24.8634 41.7527 24.8679 42.2829 24.8634 41.0089V38.1301C24.8634 36.684 24.8634 35.2407 24.8634 33.8V31.9958C24.8634 31.0495 24.8634 30.1033 24.8634 29.1563C24.8634 28.8182 24.8315 28.4778 24.8041 28.1352C24.7023 27.5874 24.4494 27.0789 24.074 26.6672C23.6986 26.2555 23.2156 25.9569 22.6795 25.8051C22.3764 25.7292 22.0617 25.7106 21.7518 25.7503C21.2068 25.8054 20.6905 26.0214 20.2686 26.371C20.0537 26.5542 19.8601 26.7612 19.6917 26.988C19.6273 27.0716 19.5756 27.1643 19.5382 27.2631C19.4943 27.3625 19.479 27.4721 19.4937 27.5797C19.5085 27.6874 19.5529 27.7888 19.622 27.8726C19.6676 27.9167 19.7215 27.9512 19.7806 27.9741C19.8397 27.997 19.9027 28.0079 19.9661 28.0061C20.0919 28.0013 20.2156 27.9729 20.3309 27.9223C20.533 27.8382 20.7197 27.7212 20.8834 27.576L20.9679 27.5093C21.0065 27.4804 21.0421 27.4514 21.1163 27.3884C21.3146 27.2159 21.5574 27.1026 21.8169 27.0613C22.0765 27.02 22.3425 27.0524 22.5846 27.1548C22.8353 27.238 23.0563 27.3924 23.2207 27.5991C23.385 27.8059 23.4856 28.0561 23.51 28.3191V28.3191Z"
        fill="#0566B1" />
</svg>