<svg width="80" height="80" viewBox="0 0 80 80" fill="none" xmlns="http://www.w3.org/2000/svg">
    <path d="M0 6C0 2.68629 2.68629 0 6 0H80V80H6C2.68629 80 0 77.3137 0 74V6Z" fill="#4FD490" />
    <path
        d="M52.7845 34.5581L38.3858 22.1438C38.1617 21.9521 37.8383 21.9521 37.6185 22.1438L33.6341 25.5783C33.2288 25.9276 32.6005 25.6397 32.6005 25.1047C32.6005 24.7613 32.3332 24.4849 32.0013 24.4849H27.1989C26.8669 24.4849 26.5997 24.7613 26.5997 25.1047V27.1745C26.5997 30.0109 25.3642 32.7065 23.2155 34.5581C23.0776 34.6741 23 34.8524 23 35.0353V57.3802C23 57.7235 23.2673 58 23.5992 58H52.4008C52.7327 58 53 57.7235 53 57.3802V35.0353C53 34.8524 52.9181 34.6741 52.7845 34.5581ZM30.1907 48.0694C30.2041 48.0694 30.2164 48.0765 30.2233 48.0879C30.2677 48.1614 30.3154 48.2313 30.3631 48.3013L30.3837 48.3297C31.0401 49.2359 31.3934 50.3262 31.3934 51.4451V55.5553C31.3934 56.2184 30.8559 56.7559 30.1928 56.7559C29.5298 56.7559 28.9922 56.2184 28.9922 55.5553V49.3091C28.9922 48.6224 29.5311 48.0694 30.1907 48.0694ZM37.9978 40.6226C38.5398 40.6226 39.0634 40.4712 39.5178 40.1947C40.1632 39.8019 40.8421 39.383 41.5975 39.383C42.589 39.383 43.3952 40.2168 43.3995 41.2469C43.3995 41.6052 42.9635 41.7814 42.7145 41.5239L42.0243 40.8099C41.9122 40.694 41.757 40.6271 41.6018 40.6271H34.4025C34.243 40.6271 34.0921 40.694 33.98 40.8099L33.2898 41.5239C33.0408 41.7814 32.6048 41.6052 32.6048 41.2469C32.6048 40.2213 33.411 39.3874 34.4068 39.383C35.1618 39.383 35.8402 39.8036 36.4857 40.1951C36.9371 40.469 37.4583 40.6201 37.9978 40.6226ZM31.4926 45.1219L32.3142 44.272C33.8032 42.7319 35.8535 41.8623 37.9957 41.8623C40.1378 41.8623 42.1882 42.7319 43.6771 44.272L44.4988 45.1219C45.1282 45.7774 45.1971 46.8119 44.6669 47.5566L42.9986 49.8576C42.7442 50.2054 42.2657 50.2767 41.9294 50.0136C41.8217 49.9289 41.7355 49.8174 41.6837 49.6881C41.6449 49.59 41.6234 49.4874 41.6234 49.3804C41.6234 49.2466 41.6578 49.1173 41.7182 49.0014L41.7225 48.9925C41.7311 48.9746 41.7398 48.9568 41.7527 48.939L43.296 46.5444C43.4555 46.2991 43.4254 45.9692 43.2227 45.7596L42.0243 44.5199C41.7915 44.2791 41.4121 44.2791 41.175 44.5199C41.0629 44.6359 40.9983 44.7964 40.9983 44.9569V47.7886C40.9983 47.8438 40.9822 47.8979 40.9521 47.9441C40.9025 48.0201 40.8196 48.0668 40.7295 48.0773C40.2777 48.1304 39.8552 48.314 39.5064 48.6002C39.0679 48.9599 38.5695 49.3002 38.0023 49.3002H37.715C37.3203 49.3002 36.9703 49.0711 36.6959 48.7873C36.3117 48.3858 35.8073 48.1386 35.2664 48.0769C35.1762 48.0667 35.0931 48.02 35.0435 47.944C35.0134 47.8978 34.9974 47.8439 34.9974 47.7888V44.9658C34.9974 44.6225 34.7301 44.346 34.3982 44.346C34.2387 44.346 34.0878 44.4129 33.9757 44.5288L32.7773 45.7685C32.5747 45.9781 32.5445 46.3036 32.704 46.5533L34.2473 48.9479C34.2602 48.9657 34.2689 48.9836 34.2775 49.0014L34.2818 49.0103C34.3421 49.1262 34.3766 49.2556 34.3766 49.3893C34.3766 49.4964 34.3551 49.5989 34.3163 49.697C34.2473 49.8709 34.118 50.0136 33.9542 50.0939C33.6222 50.2633 33.2256 50.1652 33.0014 49.862L31.3331 47.5611C30.7942 46.8119 30.8632 45.7819 31.4926 45.1219ZM32.5995 51.1284C32.5986 51.1284 32.5982 51.1297 32.599 51.1302C32.6281 51.1488 32.6572 51.1643 32.6863 51.1794C32.6947 51.1838 32.7006 51.1919 32.7023 51.2012L32.7877 51.682C32.798 51.7398 32.7536 51.7928 32.6949 51.7928C32.6428 51.7928 32.6005 51.7506 32.6005 51.6985V51.1294C32.6005 51.1289 32.6001 51.1284 32.5995 51.1284ZM38.5971 51.1936C38.5971 51.5246 38.3288 51.7928 37.9978 51.7928C37.6669 51.7928 37.3986 51.5246 37.3986 51.1936V51.1524C37.3986 50.8215 37.6669 50.5532 37.9978 50.5532C38.3288 50.5532 38.5971 50.8215 38.5971 51.1524V51.1936ZM37.3986 53.6317C37.3986 53.3008 37.6669 53.0325 37.9978 53.0325C38.3288 53.0325 38.5971 53.3008 38.5971 53.6317V56.1567C38.5971 56.4876 38.3288 56.7559 37.9978 56.7559C37.6669 56.7559 37.3986 56.4876 37.3986 56.1567V53.6317ZM43.3995 51.7928C43.2916 51.7928 43.2099 51.6953 43.2288 51.5891L43.2959 51.2111C43.2987 51.1955 43.3082 51.1823 43.3223 51.175C43.358 51.1563 43.4038 51.1816 43.4038 51.2219V51.7885C43.4038 51.7909 43.4019 51.7928 43.3995 51.7928ZM42.9389 53.2243C42.9585 53.1134 43.0548 53.0325 43.1675 53.0325C43.2956 53.0325 43.3995 53.1364 43.3995 53.2645V56.2621C43.3995 56.5348 43.1784 56.7559 42.9057 56.7559C42.5988 56.7559 42.3662 56.4788 42.4194 56.1765L42.9389 53.2243ZM-nan -nanL32.5962 53.0325H32.8282C32.9409 53.0325 33.0372 53.1134 33.0567 53.2243L33.5763 56.1765C33.6295 56.4788 33.3969 56.7559 33.09 56.7559C32.8173 56.7559 32.5962 56.5348 32.5962 56.2621V53.0325L-nan -nanZM45.7964 56.7559C45.1345 56.7559 44.5979 56.2193 44.5979 55.5574V51.4451C44.5979 50.3262 44.9513 49.2359 45.6077 48.3297L45.6283 48.3013C45.6808 48.2302 45.7258 48.1591 45.7703 48.0843C45.7758 48.0751 45.7857 48.0694 45.7964 48.0694C46.4603 48.0694 46.9948 48.6268 46.9948 49.3091V55.5574C46.9948 56.2193 46.4583 56.7559 45.7964 56.7559ZM51.7972 54.9561C51.7972 55.9501 50.9914 56.7559 49.9974 56.7559C49.0034 56.7559 48.1976 55.9501 48.1976 54.9561V49.3091C48.1976 49.1083 48.1744 48.9123 48.1305 48.7243C47.7696 47.1779 46.4486 45.3923 45.3523 44.2435C44.8684 43.7429 44.5979 43.0739 44.5979 42.3777V41.238C44.5979 39.5257 43.2529 38.1389 41.5975 38.1344C41.256 38.1344 41.0024 37.8202 40.9992 37.4787C40.9854 36.0466 40.0093 34.7718 38.5971 34.4734C36.9718 34.1301 35.3897 35.2136 35.0578 36.8947C35.0192 37.0881 34.9988 37.2834 34.9965 37.4789C34.9927 37.8201 34.7395 38.1344 34.3982 38.1344C32.7428 38.1344 31.4021 39.5257 31.3978 41.238V42.3777C31.3978 43.0739 31.1273 43.7429 30.6433 44.2435C29.5429 45.3891 28.2258 47.1778 27.865 48.7248C27.8212 48.9127 27.7981 49.1085 27.7981 49.3091V54.9561C27.7981 55.9501 26.9923 56.7559 25.9983 56.7559C25.0043 56.7559 24.1984 55.9501 24.1984 54.9561V39.7924C24.1984 36.9561 25.4339 34.2604 27.5826 32.4088C27.7205 32.2929 27.7981 32.1145 27.7981 31.9317V27.5243C27.7981 26.5303 28.6039 25.7245 29.5979 25.7245C30.592 25.7245 31.3978 26.5303 31.3978 27.5244V27.7936C31.3978 28.1369 31.665 28.4134 31.997 28.4134C32.1392 28.4134 32.2729 28.3644 32.3807 28.2707C35.6085 25.488 40.3872 25.488 43.6149 28.2708L47.0084 31.1965C50.049 33.8179 51.7972 37.6334 51.7972 41.648V54.9561Z"
        fill="white" />
</svg>