<svg width="80" height="80" viewBox="0 0 80 80" fill="none" xmlns="http://www.w3.org/2000/svg">
    <path d="M0 6C0 2.68629 2.68629 0 6 0H80V80H6C2.68629 80 0 77.3137 0 74V6Z" fill="#F88B6F" />
    <path
        d="M35.8371 44.8046C36.2422 44.8046 36.5908 44.8046 36.9818 44.8046C36.9818 43.6033 36.9818 42.4021 36.9818 41.182C37.3728 41.182 37.7167 41.182 38.0982 41.182C38.0982 42.388 38.0982 43.5798 38.0982 44.8046C38.2537 44.8093 38.3762 44.8234 38.4987 44.8234C40.6232 44.8234 42.7477 44.8658 44.8676 44.7999C45.5789 44.781 46.2808 44.5172 46.9827 44.3335C48.7257 43.8766 50.4639 43.4055 52.2022 42.9391C52.6968 42.8072 52.89 42.9532 52.89 43.462C52.89 44.7386 52.89 46.0199 52.89 47.2965C52.89 47.386 52.89 47.4803 52.89 47.5933C43.0351 47.5933 33.2085 47.5933 23.3301 47.5933C23.3301 47.485 23.3301 47.3719 23.3301 47.2589C23.3301 46.2979 23.3301 45.3369 23.3301 44.3712C23.3348 42.5575 24.5973 41.1914 26.4109 41.1679C29.5059 41.1255 32.6055 41.1585 35.7005 41.1585C35.7334 41.1585 35.7664 41.1726 35.8324 41.1867C35.8371 42.3785 35.8371 43.5704 35.8371 44.8046Z"
        fill="white" />
    <path
        d="M51.2274 50.7213C42.4654 50.7213 33.7694 50.7213 25.031 50.7213C25.031 53.0532 25.031 55.3803 25.031 57.7309C24.4515 57.7309 23.9192 57.7309 23.3586 57.7309C23.3586 54.8526 23.3586 51.9744 23.3586 49.0679C33.1852 49.0679 43.0118 49.0679 52.8667 49.0679C52.8667 51.9461 52.8667 54.8244 52.8667 57.7309C52.3344 57.7309 51.8021 57.7309 51.2274 57.7309C51.2274 55.4132 51.2274 53.0861 51.2274 50.7213Z"
        fill="white" />
    <path
        d="M38.1169 32.6885C36.9675 32.6885 35.818 32.6932 34.6686 32.6885C33.5475 32.6838 32.9021 32.0431 32.9021 30.922C32.9021 28.6231 32.9021 26.3243 32.9021 24.0254C32.9021 22.9043 33.5428 22.2589 34.6639 22.2589C36.9628 22.2542 39.2616 22.2542 41.5604 22.2589C42.6816 22.2589 43.327 22.9043 43.3317 24.0207C43.3364 26.329 43.3317 28.642 43.3317 30.9502C43.3317 32.0196 42.6722 32.6838 41.6028 32.6838C40.4346 32.6932 39.2757 32.6885 38.1169 32.6885ZM36.7932 26.1547C35.8887 26.1547 35.0502 26.1547 34.1976 26.1547C34.1976 27.0497 34.1976 27.9118 34.1976 28.8068C35.0643 28.8068 35.9028 28.8068 36.7932 28.8068C36.7932 29.6924 36.7932 30.5404 36.7932 31.393C37.6929 31.393 38.5456 31.393 39.4453 31.393C39.4453 30.5263 39.4453 29.6783 39.4453 28.7927C40.3356 28.7927 41.1742 28.7927 42.0268 28.7927C42.0268 27.8977 42.0268 27.0356 42.0268 26.1311C41.1506 26.1311 40.3027 26.1311 39.4218 26.1311C39.4218 25.2408 39.4218 24.4023 39.4218 23.5544C38.5314 23.5544 37.6835 23.5544 36.7932 23.5544C36.7932 24.4164 36.7932 25.2549 36.7932 26.1547Z"
        fill="white" />
    <path
        d="M55.9948 57.7451C55.4248 57.7451 54.8972 57.7451 54.3414 57.7451C54.3319 57.6415 54.3225 57.5425 54.3225 57.4389C54.3225 50.4482 54.3225 43.4574 54.3225 36.4667C54.3225 35.859 54.6287 35.4963 55.1375 35.4822C55.5803 35.4727 55.9195 35.7601 55.9901 36.2076C56.0042 36.3113 55.9995 36.4196 55.9995 36.5232C55.9995 43.481 55.9995 50.434 55.9995 57.3918C55.9948 57.4954 55.9948 57.6038 55.9948 57.7451Z"
        fill="white" />
    <path
        d="M21.9121 57.7447C21.3374 57.7447 20.8098 57.7447 20.2351 57.7447C20.2351 57.6081 20.2351 57.4857 20.2351 57.3632C20.2351 52.4499 20.2351 47.5366 20.2351 42.6233C20.2351 42.5291 20.2304 42.4349 20.2398 42.3406C20.2869 41.9025 20.6355 41.5728 21.0547 41.5681C21.474 41.5587 21.8367 41.8743 21.898 42.3124C21.9121 42.4066 21.9074 42.5008 21.9074 42.595C21.9074 47.5319 21.9074 52.4687 21.9074 57.4056C21.9121 57.5045 21.9121 57.6081 21.9121 57.7447Z"
        fill="white" />
    <path
        d="M47.5387 42.6513C46.2668 42.9858 45.0043 43.3297 43.7371 43.65C43.5157 43.7065 43.2708 43.6641 43.0352 43.6641C41.7822 43.6641 40.5291 43.6641 39.2478 43.6641C39.2478 42.8256 39.2478 42.0154 39.2478 41.2004C39.6718 41.1439 40.1146 41.1251 40.5385 41.0261C41.5843 40.7765 42.616 40.4703 43.6618 40.2206C45.3623 39.8155 47.0347 40.8141 47.5151 42.4959C47.5293 42.5336 47.5293 42.5807 47.5387 42.6513Z"
        fill="white" />
    <path
        d="M50.2281 41.851C48.7583 41.851 47.5571 40.6592 47.5618 39.1941C47.5618 37.7244 48.7583 36.542 50.2328 36.542C51.7119 36.542 52.899 37.7244 52.899 39.1941C52.8943 40.6686 51.7025 41.851 50.2281 41.851Z"
        fill="white" />
</svg>