<svg width="80" height="80" viewBox="0 0 80 80" fill="none" xmlns="http://www.w3.org/2000/svg">
    <path d="M0 6C0 2.68629 2.68629 0 6 0H80V80H6C2.68629 80 0 77.3137 0 74V6Z" fill="#B19DE5" />
    <path
        d="M41.0159 33.7993C40.9358 33.979 40.6614 33.9666 40.6092 33.7769C40.6027 33.7532 40.5965 33.7297 40.5908 33.7061C39.9895 31.4858 39.3883 29.2603 38.7818 27.0401C38.6989 26.7399 38.6108 26.4397 38.4864 26.1602C38.3257 25.8135 38.0354 25.6271 37.6363 25.6478C37.2527 25.6685 36.9832 25.8756 36.8692 26.2171C36.6929 26.7502 36.553 27.2988 36.413 27.8474C35.677 30.7509 34.9461 33.6544 34.2153 36.5578C34.1816 36.699 33.9747 36.7043 33.9289 36.5666C33.9221 36.5463 33.9157 36.5262 33.9094 36.5061C33.1993 34.1978 32.4892 31.8895 31.7791 29.5812C31.7221 29.3949 31.6495 29.2034 31.5458 29.0378C31.1778 28.4581 30.4366 28.3702 29.9442 28.8463C29.7938 28.9912 29.6694 29.1672 29.5554 29.3432C28.9334 30.3058 28.3062 31.2633 27.7049 32.2363C27.4665 32.6244 27.1659 32.8056 26.6994 32.7952C25.5538 32.7745 24.4083 32.7849 23.2628 32.79C23.0295 32.79 22.8585 32.7538 22.7704 32.495C21.402 28.541 21.8892 24.887 24.709 21.73C27.4147 18.7023 30.9342 18.2055 34.5107 20.1773C35.5837 20.7673 36.5789 21.466 37.4134 22.3614C37.7192 22.6926 37.8851 22.6305 38.1805 22.3459C39.7615 20.8139 41.5653 19.665 43.7527 19.1888C46.1007 18.6816 48.1585 19.3078 49.9572 20.8191C52.129 22.6512 53.2745 25.0216 53.5078 27.8474C53.6374 29.3949 53.373 30.8855 52.8858 32.3449C52.7821 32.6555 52.637 32.7952 52.2845 32.79C50.828 32.7693 49.3715 32.7745 47.9097 32.79C47.5003 32.7952 47.21 32.64 46.9923 32.2984C46.3288 31.2633 45.655 30.2333 44.9863 29.2034C44.7012 28.7635 44.3539 28.4167 43.789 28.4788C43.224 28.5358 42.9544 28.9446 42.7575 29.4311C42.1821 30.8906 41.5964 32.3449 41.0159 33.7993Z"
        fill="white" />
    <path
        d="M36.7643 49.1754C36.84 49.1943 36.8023 49.3181 36.7337 49.3553C35.6359 49.9515 35.4087 50.9619 35.4685 52.1203C35.5099 52.9639 35.8831 53.6212 36.6451 53.9369C37.3656 54.2371 38.1431 54.4493 38.9154 54.5787C40.3149 54.8116 41.73 54.8116 43.1347 54.5424C43.2626 54.5181 43.2308 54.3766 43.1011 54.365C42.3992 54.3024 41.6947 54.2473 40.9939 54.1543C40.0713 54.0352 39.1435 53.9162 38.2312 53.7144C37.0338 53.4452 36.417 52.4257 36.728 51.375C36.925 50.7074 37.4433 50.252 38.1431 50.2209C39.6411 50.1484 41.1391 50.1381 42.6371 50.0398C43.1295 50.0087 43.6478 49.8741 44.0832 49.6464C45.1562 49.0771 46.1773 48.4095 47.2295 47.8039C48.4269 47.1156 49.702 46.686 51.1067 46.7481C52.1848 46.7947 53.206 47.0845 54.1545 47.571C55.2845 48.1507 56.3834 48.7976 57.4822 49.4342C57.6066 49.5067 57.7259 49.7189 57.7259 49.869C57.7414 52.4257 57.731 54.9824 57.7414 57.5442C57.7414 57.8341 57.6118 57.9013 57.3527 57.8962C56.5752 57.8858 55.7925 57.9272 55.0201 57.8858C51.9671 57.7357 49.1007 58.4241 46.3484 59.6973C45.0007 60.3235 43.6064 60.8359 42.1239 61.0532C40.7918 61.2499 39.5115 61.1102 38.3608 60.3856C36.5829 59.2573 34.8102 58.1135 33.0685 56.9335C29.8963 54.7857 26.7396 52.612 23.5882 50.4331C23.1527 50.1381 22.7692 49.7551 22.3804 49.3773C22.0435 49.0512 21.888 48.6268 22.0902 48.1817C22.2923 47.7315 22.7173 47.4779 23.189 47.5296C23.8007 47.5969 24.4019 47.7677 24.998 47.9333C25.3246 48.0213 25.563 48.0213 25.8326 47.7625C26.2576 47.3537 26.8122 47.2657 27.3772 47.4002C28.2739 47.6073 29.1603 47.8402 30.057 48.042C30.1866 48.0731 30.3836 48.0524 30.4717 47.9696C31.0056 47.4675 31.669 47.364 32.2962 47.571C33.7994 48.0575 35.2767 48.632 36.7643 49.1754Z"
        fill="white" />
    <path
        d="M43.7622 31.087C43.8477 30.8541 44.1722 30.8248 44.3125 31.0295C44.3608 31.0999 44.4068 31.1682 44.4516 31.2371C44.8507 31.8529 45.2654 32.4636 45.6438 33.0899C46.1777 33.9801 46.9707 34.3631 47.9815 34.3631C49.1011 34.3631 50.2155 34.3631 51.3351 34.3631C51.6023 34.3631 51.7658 34.659 51.6257 34.8866C51.4546 35.1647 51.2989 35.4185 51.133 35.6621C49.8475 37.5305 48.2406 39.0986 46.4576 40.4805C43.9384 42.4317 41.212 44.0205 38.2626 45.2368C37.9413 45.3714 37.6614 45.3869 37.3348 45.2471C33.4058 43.6013 29.8086 41.4328 26.7815 38.4207C25.7396 37.3804 24.8999 36.1331 23.9773 34.9738C23.9494 34.9387 23.9246 34.9016 23.9014 34.8623C23.7791 34.6557 23.9445 34.3682 24.1846 34.3682C25.0191 34.3631 25.8536 34.3734 26.6882 34.3682C27.6626 34.3631 28.435 33.9904 28.9585 33.1313C29.3628 32.4688 29.793 31.8219 30.218 31.1646C30.3282 30.9918 30.5966 31.0397 30.6587 31.2349C30.8184 31.7369 30.9681 32.2049 31.1148 32.6758C31.7938 34.891 32.4728 37.1061 33.1518 39.3212C33.157 39.3367 33.1622 39.3471 33.1674 39.3626C33.3695 39.9785 33.7272 40.3201 34.1678 40.3097C34.6187 40.2994 34.966 39.9578 35.1267 39.3212C35.5569 37.6392 35.9768 35.9519 36.3966 34.2647C36.7906 32.7017 37.1793 31.1387 37.5733 29.5809C37.6192 29.4049 37.8238 29.4464 37.8721 29.6218C38.0944 30.4282 38.314 31.2318 38.5374 32.0393C38.9106 33.4159 39.2838 34.7926 39.657 36.1693C39.7036 36.3297 39.7555 36.4954 39.8384 36.6455C40.2012 37.3234 41.0306 37.37 41.4608 36.7334C41.5852 36.5471 41.6733 36.3349 41.7562 36.1279C42.4301 34.451 43.0936 32.769 43.7622 31.087Z"
        fill="white" />
</svg>