<svg width="80" height="80" viewBox="0 0 80 80" fill="none" xmlns="http://www.w3.org/2000/svg">
    <path d="M0 6C0 2.68629 2.68629 0 6 0H80V80H6C2.68629 80 0 77.3137 0 74V6Z" fill="#8B8279" />
    <path
        d="M25.3333 38.1667C24.8139 38.1667 24.3788 37.9907 24.028 37.6387C23.676 37.2879 23.5 36.8528 23.5 36.3333V25.3333C23.5 24.8139 23.676 24.3782 24.028 24.0262C24.3788 23.6754 24.8139 23.5 25.3333 23.5H36.3333C36.8528 23.5 37.2885 23.6754 37.6405 24.0262C37.9913 24.3782 38.1667 24.8139 38.1667 25.3333V36.3333C38.1667 36.8528 37.9913 37.2879 37.6405 37.6387C37.2885 37.9907 36.8528 38.1667 36.3333 38.1667H25.3333ZM27.1667 27.1667V34.5V27.1667ZM43.6667 38.1667C43.1472 38.1667 42.7121 37.9907 42.3613 37.6387C42.0093 37.2879 41.8333 36.8528 41.8333 36.3333V25.3333C41.8333 24.8139 42.0093 24.3782 42.3613 24.0262C42.7121 23.6754 43.1472 23.5 43.6667 23.5H54.6667C55.1861 23.5 55.6212 23.6754 55.972 24.0262C56.324 24.3782 56.5 24.8139 56.5 25.3333V36.3333C56.5 36.8528 56.324 37.2879 55.972 37.6387C55.6212 37.9907 55.1861 38.1667 54.6667 38.1667H43.6667ZM45.5 27.1667V34.5V27.1667ZM25.3333 56.5C24.8139 56.5 24.3788 56.324 24.028 55.972C23.676 55.6212 23.5 55.1861 23.5 54.6667V43.6667C23.5 43.1472 23.676 42.7115 24.028 42.3595C24.3788 42.0087 24.8139 41.8333 25.3333 41.8333H36.3333C36.8528 41.8333 37.2885 42.0087 37.6405 42.3595C37.9913 42.7115 38.1667 43.1472 38.1667 43.6667V54.6667C38.1667 55.1861 37.9913 55.6212 37.6405 55.972C37.2885 56.324 36.8528 56.5 36.3333 56.5H25.3333ZM27.1667 45.5V52.8333V45.5ZM49.1667 56.5C48.6472 56.5 48.2121 56.324 47.8613 55.972C47.5093 55.6212 47.3333 55.1861 47.3333 54.6667V51H43.6208C43.1014 51 42.6736 50.824 42.3375 50.472C42.0014 50.1212 41.8333 49.6861 41.8333 49.1667C41.8333 48.6472 42.0093 48.2121 42.3613 47.8613C42.7121 47.5093 43.1472 47.3333 43.6667 47.3333H47.3333V43.6208C47.3333 43.1014 47.5093 42.6736 47.8613 42.3375C48.2121 42.0014 48.6472 41.8333 49.1667 41.8333C49.6861 41.8333 50.1212 42.0087 50.472 42.3595C50.824 42.7115 51 43.1472 51 43.6667V47.3333H54.7125C55.2319 47.3333 55.6597 47.5093 55.9958 47.8613C56.3319 48.2121 56.5 48.6472 56.5 49.1667C56.5 49.6861 56.324 50.1212 55.972 50.472C55.6212 50.824 55.1861 51 54.6667 51H51V54.7125C51 55.2319 50.824 55.6597 50.472 55.9958C50.1212 56.3319 49.6861 56.5 49.1667 56.5ZM45.5 27.1667V34.5H52.8333V27.1667H45.5ZM27.1667 27.1667V34.5H34.5V27.1667H27.1667ZM27.1667 45.5V52.8333H34.5V45.5H27.1667Z"
        fill="white" />
</svg>