<svg width="80" height="80" viewBox="0 0 80 80" fill="none" xmlns="http://www.w3.org/2000/svg">
    <path d="M0 6C0 2.68629 2.68629 0 6 0H80V80H6C2.68629 80 0 77.3137 0 74V6Z" fill="#F9C26F" />
    <path
        d="M38.6777 28.5265H43.7208C43.8324 28.5265 43.935 28.571 44.0154 28.6468L46.0817 30.7189C46.2067 30.8437 46.4075 30.8437 46.5325 30.7189C46.5905 30.661 46.6262 30.5763 46.6262 30.4916V28.9364C46.6262 28.7092 46.8136 28.522 47.0413 28.522H48.9916C49.4914 28.522 49.8975 28.1165 49.8975 27.6174V21.9046C49.8975 21.4055 49.4914 21 48.9916 21H38.6777C38.1779 21 37.7717 21.4055 37.7717 21.9046V27.6219C37.7762 28.1254 38.1823 28.5265 38.6777 28.5265ZM44.417 23.1523C44.417 22.9117 44.6134 22.7156 44.8544 22.7156C45.0954 22.7156 45.2918 22.9117 45.2918 23.1523V23.1657C45.2918 23.4063 45.0954 23.6024 44.8544 23.6024C44.6134 23.6024 44.417 23.4063 44.417 23.1657V23.1523ZM41.8553 23.1523C41.8553 22.9117 42.0517 22.7156 42.2927 22.7156C42.5337 22.7156 42.7301 22.9117 42.7301 23.1523V23.1657C42.7301 23.4063 42.5337 23.6024 42.2927 23.6024C42.0517 23.6024 41.8553 23.4063 41.8553 23.1657V23.1523ZM42.1142 24.6318H45.14C45.323 24.6318 45.4703 24.7788 45.4703 24.9615C45.4703 25.9775 44.6447 26.8019 43.6271 26.8019C42.6096 26.8019 41.7839 25.9775 41.7839 24.9615C41.7839 24.7788 41.9312 24.6318 42.1142 24.6318Z"
        fill="white" />
    <path
        d="M28.6763 31.387H30.9391C30.9435 31.387 30.948 31.3915 30.948 31.3959V33.0447C30.948 33.2452 31.1131 33.4101 31.3139 33.4101C31.3987 33.4101 31.4791 33.3834 31.5416 33.3299L33.5543 31.7168C33.8177 31.5073 34.1479 31.3915 34.4871 31.3915H38.7492C39.4365 31.3915 39.9988 30.8345 39.9988 30.1437C39.9988 29.6146 39.5699 29.1857 39.0407 29.1857H38.6867C37.8254 29.1857 37.1247 28.4861 37.1247 27.626C37.1247 24.9927 34.9899 22.8579 32.3566 22.8579H28.6853C27.998 22.8579 27.4357 23.4149 27.4357 24.1056V30.1437C27.4267 30.83 27.9891 31.387 28.6763 31.387ZM34.3889 25.496C34.3889 25.2553 34.5853 25.0593 34.8263 25.0593C35.0673 25.0593 35.2637 25.2553 35.2637 25.496V25.5093C35.2637 25.75 35.0673 25.946 34.8263 25.946C34.5853 25.946 34.3889 25.75 34.3889 25.5093V25.496ZM31.8227 25.496C31.8227 25.2553 32.0191 25.0593 32.2601 25.0593C32.5011 25.0593 32.6975 25.2553 32.6975 25.496V25.5093C32.6975 25.75 32.5011 25.946 32.2601 25.946C32.0191 25.946 31.8227 25.75 31.8227 25.5093V25.496ZM31.7513 27.3052C31.7513 27.1225 31.8986 26.9754 32.0816 26.9754H35.1074C35.2904 26.9754 35.4377 27.1225 35.4377 27.3052C35.4377 28.3212 34.6121 29.1456 33.5945 29.1456C32.5814 29.15 31.7513 28.3212 31.7513 27.3052Z"
        fill="white" />
    <path
        d="M55.2018 47.9269C54.9689 47.6739 54.8024 47.3164 54.664 47.0016C53.9901 45.4999 53.285 43.2673 52.6869 41.2754C52.3062 40.015 51.6275 39.3592 51.0104 38.9967C50.5665 38.736 50.3082 38.212 50.3082 37.6971C50.3082 37.5685 50.4073 37.4565 50.5359 37.4565H50.8616C51.0937 37.461 51.2856 37.2782 51.299 37.051C51.3079 36.8193 51.1249 36.6276 50.8928 36.6187C50.8884 36.6187 50.8839 36.6187 50.8794 36.6187C50.5639 36.6187 50.3082 36.363 50.3082 36.0475V35.2908C50.3082 34.1901 49.4111 33.2944 48.3088 33.2944H46.9699C45.8676 33.2944 44.9705 34.1901 44.9705 35.2908V36.0653C44.9705 36.371 44.7227 36.6187 44.4171 36.6187C44.185 36.6143 43.9931 36.797 43.9797 37.0242C43.9708 37.256 44.1538 37.4476 44.3859 37.4565C44.3903 37.4565 44.3948 37.4565 44.3993 37.4565H44.7026C44.8312 37.4565 44.9303 37.5685 44.9303 37.6971C44.9303 38.173 44.6809 38.6573 44.2645 38.8875C43.7413 39.1767 43.1878 39.6527 42.8328 40.4332C42.6766 40.7808 42.5784 41.1507 42.5427 41.5294C42.5197 41.7513 42.2108 41.8269 42.0666 41.6567C41.7666 41.3025 41.4113 40.9982 41.0138 40.7551C40.7132 40.5713 40.5739 40.1931 40.6439 39.8478C40.6872 39.6345 40.8145 39.4476 40.9843 39.3115C41.6184 38.8033 41.8274 37.9031 41.4403 37.1535C41.0744 36.4494 40.2844 36.0795 39.5079 36.2533C39.4365 36.2667 39.3651 36.24 39.3204 36.1865C38.6867 35.4646 37.5843 35.3933 36.8569 36.0261C36.7989 36.0751 36.7453 36.1286 36.6962 36.1865C36.6516 36.24 36.5802 36.2667 36.5088 36.2533C35.5671 36.0439 34.6343 36.6321 34.4246 37.5724C34.4067 37.657 34.3933 37.7461 34.3844 37.8353C34.3427 38.4257 34.6037 38.9872 35.0633 39.3369C35.2165 39.4534 35.3289 39.6219 35.3638 39.8111C35.4208 40.1207 35.2772 40.4513 34.9937 40.5881C34.252 40.9459 33.3409 41.6176 33.0054 42.8306C32.9916 42.8827 32.9118 42.8758 32.9062 42.8222L32.7688 41.525C32.7331 41.1462 32.6349 40.7763 32.4787 40.4288C32.0885 39.5709 31.4586 39.0809 30.8926 38.8025C30.5513 38.6345 30.3504 38.2461 30.3746 37.8664C30.3917 37.5995 30.5309 37.3523 30.7288 37.1724C31.3032 36.6505 31.4753 35.7902 31.0952 35.0724C30.7293 34.3773 29.9393 34.0163 29.1717 34.1857C29.1003 34.199 29.0289 34.1723 28.9842 34.1188C28.3505 33.3969 27.2482 33.3256 26.5207 33.9584C26.4627 34.0074 26.4091 34.0609 26.36 34.1188C26.3154 34.1723 26.244 34.199 26.1726 34.1857C25.2309 33.9762 24.2982 34.5644 24.0884 35.5047C24.0705 35.5894 24.0572 35.6785 24.0482 35.7676C24.005 36.3873 24.2972 36.976 24.7969 37.3208C24.9205 37.4061 24.9988 37.547 24.9988 37.6971C24.9988 38.2099 24.7377 38.735 24.2954 38.9944C23.6786 39.3561 23.0006 40.0129 22.6201 41.2754C22.0221 43.2629 21.3169 45.4999 20.643 47.0016C20.5046 47.3164 20.3385 47.6742 20.1049 47.9266C19.8674 48.1832 19.7281 48.5239 19.7281 48.8866V49.3411C19.7236 49.5728 19.9066 49.7644 20.1342 49.7778C20.3663 49.7867 20.5582 49.604 20.5671 49.3723C20.5671 49.3678 20.5671 49.3634 20.5671 49.3589V48.8866C20.5671 48.5702 20.826 48.3117 21.1429 48.3117C21.3258 48.3117 21.4954 48.3964 21.6025 48.5434C21.6784 48.6459 21.7186 48.7752 21.7186 48.9044V55.9585C21.7141 56.1902 21.8971 56.3818 22.1247 56.3952C22.3568 56.4041 22.5487 56.2214 22.5576 55.9897C22.5576 55.9852 22.5576 55.9808 22.5576 55.9763V49.1896C22.5576 49.0571 22.6884 48.9623 22.8209 48.9623C22.937 48.9623 23.0485 48.94 23.1556 48.8999C23.3743 48.8108 23.5528 48.637 23.651 48.4231C23.8513 48.0055 24.1447 47.3398 24.4428 46.5231C24.4445 46.5184 24.4445 46.5203 24.4455 46.5154C24.4557 46.4663 24.5342 46.4767 24.5305 46.5266L23.8697 55.5352C23.8385 55.9407 24.1196 56.3016 24.5213 56.3774C24.5749 56.3863 24.6329 56.3908 24.6864 56.3908H26.5341C26.9581 56.3908 27.3062 56.061 27.333 55.6377L27.4044 49.9293C27.4044 49.7689 27.5249 49.6307 27.6855 49.6085C27.8551 49.5906 28.0113 49.7154 28.0247 49.8892C28.0247 49.8981 28.0247 49.907 28.0247 49.9159L28.0917 55.6377C28.1184 56.061 28.4665 56.3863 28.8905 56.3908H30.756C31.1979 56.3908 31.5549 56.0343 31.5549 55.5931C31.5549 55.5753 31.5549 55.5575 31.5549 55.5396L30.7069 42.9643C30.6891 42.7326 30.4927 42.5588 30.2606 42.5722C30.0286 42.59 29.8545 42.7861 29.8679 43.0178C29.9404 44.0956 29.0856 45.0097 28.0054 45.0097H27.4693C26.3982 45.0097 25.5531 44.0993 25.6326 43.0312V43.0267C25.646 42.8173 25.5076 42.6301 25.3068 42.5855C25.0881 42.541 24.8694 42.6747 24.8069 42.8886C24.3562 44.3858 23.6689 46.1995 23.66 46.2218C23.3654 47.0328 23.0753 47.6789 22.8834 48.0845C22.87 48.1157 22.8298 48.129 22.7986 48.1157L21.4419 47.4294C21.4106 47.416 21.3972 47.3759 21.4106 47.3492C22.1024 45.8029 22.8165 43.5392 23.4234 41.525C23.9233 39.8628 24.9944 39.5509 25.5701 39.386C25.5781 39.3833 25.587 39.386 25.5924 39.3926C26.5181 40.5413 28.2025 40.7244 29.3547 39.8049C29.6757 39.5501 30.0859 39.3667 30.4575 39.5397C30.9006 39.7461 31.4027 40.1182 31.7022 40.7853C31.8182 41.0526 31.8941 41.3334 31.9209 41.623L32.034 42.6581C32.1968 44.1466 32.0152 45.6808 31.2246 46.9526C31.0863 47.1709 31.0506 47.4339 31.122 47.6834C31.2068 47.9552 31.421 48.1691 31.6933 48.2538C32.0427 48.3632 32.4308 48.5002 32.5555 48.8446C32.5885 48.9358 32.6066 49.0329 32.6082 49.1317V55.9585C32.6037 56.1902 32.7867 56.3818 33.0143 56.3952C33.2464 56.4041 33.4383 56.2214 33.4472 55.9897C33.4472 55.9852 33.4472 55.9808 33.4472 55.9763V49.1272C33.4472 48.8364 33.6099 48.5372 33.7874 48.3068C33.8027 48.287 33.8173 48.2663 33.831 48.2449C33.8712 48.1825 33.9113 48.1201 33.947 48.0533C34.9423 46.0747 34.9914 44.6176 34.9914 44.6042C34.9958 44.4259 35.1431 44.2833 35.3216 44.2833C35.3261 44.2833 35.3261 44.2833 35.3306 44.2833C35.5135 44.2878 35.6563 44.4393 35.6519 44.6176C35.6519 44.6653 35.6306 45.3901 35.2837 46.5125C34.788 48.116 34.2058 49.7131 34.0765 51.3865C34.0631 51.5647 34.1613 51.7296 34.3264 51.8009C34.3844 51.8276 34.4469 51.8366 34.5049 51.8366C34.9835 51.8366 35.3767 52.2145 35.3955 52.6928L35.5135 55.6867C35.5269 56.0833 35.8527 56.3952 36.2499 56.3908H39.5525C39.9497 56.3908 40.2755 56.0788 40.2889 55.6867L40.4058 52.7195C40.4253 52.2264 40.8307 51.8366 41.3243 51.8366C41.3868 51.8366 41.4492 51.8232 41.5073 51.8009C41.6724 51.7251 41.7706 51.5514 41.7483 51.3731L41.7462 51.3538C41.6607 50.5544 41.0115 49.955 40.3246 49.5372C39.9051 49.2743 39.7265 48.7529 39.8961 48.285C40.3469 47.0595 40.4094 46.1638 40.3781 45.6247C40.363 45.3462 40.3227 45.1337 40.2853 44.9885C40.2443 44.83 40.142 44.6738 40.1881 44.5167C40.2131 44.4317 40.2716 44.3566 40.3558 44.3145C40.5165 44.2343 40.7129 44.3012 40.7977 44.4616C40.8244 44.5195 41.4849 45.8742 40.512 48.5122C40.4495 48.686 40.5165 48.8821 40.6727 48.9801C40.7218 49.0113 40.7753 49.0425 40.8378 49.0737C41.1725 49.2431 41.5385 49.3277 41.9089 49.3233C43.1259 49.3233 44.0887 50.3533 44.0068 51.5675L43.7387 55.5396C43.7075 55.9808 44.0422 56.3596 44.4841 56.3908C44.5019 56.3908 44.5198 56.3908 44.5376 56.3908H46.4031C46.8271 56.3908 47.1752 56.061 47.202 55.6377L47.2689 49.9159C47.2689 49.7422 47.4117 49.6085 47.5858 49.6085C47.7554 49.6085 47.8937 49.7466 47.8937 49.9159L47.9651 55.6377C47.9919 56.061 48.34 56.3863 48.764 56.3908H50.6117C50.6652 56.3908 50.7232 56.3863 50.7768 56.3774C51.1785 56.3016 51.4552 55.9407 51.4239 55.5352L50.7628 46.5226C50.7592 46.4733 50.8378 46.4626 50.8481 46.5109C50.8492 46.5158 50.8491 46.5139 50.8508 46.5185C51.1489 47.3396 51.4468 48.001 51.6426 48.4231C51.7408 48.6415 51.9193 48.8108 52.138 48.8999C52.2451 48.94 52.3567 48.9623 52.4727 48.9623C52.6052 48.9623 52.736 49.0571 52.736 49.1896V55.9585C52.7316 56.1902 52.9145 56.3818 53.1422 56.3952C53.3742 56.4041 53.5661 56.2214 53.5751 55.9897C53.5751 55.9852 53.5751 55.9808 53.5751 55.9763V48.9044C53.5706 48.7752 53.6108 48.6504 53.6866 48.5479C53.8741 48.2894 54.2356 48.2315 54.49 48.4187C54.6417 48.5256 54.7265 48.6994 54.7265 48.8866V49.3411C54.722 49.5728 54.905 49.7644 55.1326 49.7778C55.3647 49.7867 55.5566 49.604 55.5655 49.3723C55.5655 49.3678 55.5655 49.3634 55.5655 49.3589V48.8866C55.5741 48.524 55.438 48.1835 55.2018 47.9269ZM27.69 39.5509C26.668 39.5509 25.8423 38.7265 25.8423 37.706C25.8423 37.6645 25.8768 37.6342 25.9183 37.6313C26.3866 37.5991 26.8216 37.3761 27.1232 37.0198C27.1634 36.9797 27.2258 36.9619 27.2839 36.9797C27.5383 37.0376 27.8016 37.0376 28.0604 36.9797C28.1184 36.9619 28.1765 36.9797 28.2211 37.0198C28.5325 37.3904 28.9867 37.6144 29.4706 37.6373C29.5077 37.6391 29.5421 37.6689 29.5421 37.706C29.5332 38.722 28.7075 39.5464 27.69 39.5509ZM29.551 36.797C29.2833 36.797 29.0333 36.6811 28.8593 36.4761C28.6718 36.2578 28.3951 36.1286 28.105 36.133C28.0247 36.133 27.9488 36.1419 27.873 36.1598C27.7391 36.1909 27.6052 36.1909 27.4713 36.1598C27.1098 36.0706 26.726 36.1954 26.4805 36.4761C26.1592 36.8549 25.588 36.9039 25.2086 36.5831C24.8293 36.2622 24.7801 35.6919 25.1015 35.3131C25.3202 35.0546 25.6594 34.9432 25.9896 35.0145C26.36 35.0947 26.7439 34.97 26.9938 34.6848C27.324 34.3104 27.8953 34.2748 28.2702 34.6001C28.3014 34.6268 28.3282 34.6536 28.355 34.6848C28.6049 34.97 28.9887 35.0947 29.3591 35.0145C29.8456 34.9076 30.3321 35.2106 30.4392 35.6963C30.4481 35.7409 30.457 35.7854 30.457 35.83C30.4927 36.3291 30.1178 36.7569 29.618 36.7925C29.5912 36.797 29.5689 36.797 29.551 36.797ZM-nan -nanL37.4817 55.553H36.906C36.5968 55.553 36.3429 55.3089 36.3307 55L36.2311 52.4869C36.217 52.132 36.5009 51.8366 36.8561 51.8366C37.2016 51.8366 37.4817 52.1166 37.4817 52.4621V55.553L-nan -nanZM39.4762 55C39.464 55.3089 39.21 55.553 38.9009 55.553C38.583 55.553 38.3252 55.2952 38.3252 54.9773V52.4621C38.3252 52.1166 38.6053 51.8366 38.9507 51.8366C39.306 51.8366 39.5899 52.132 39.5758 52.4869L39.4762 55ZM38.0083 41.1685C37.6363 41.1685 37.286 41.0572 36.9926 40.8635C36.362 40.4473 36.9723 39.6568 37.4638 39.083C37.504 39.0429 37.5665 39.0251 37.6245 39.0429C37.8789 39.1008 38.1422 39.1008 38.4011 39.0429C38.4591 39.0251 38.5171 39.0429 38.5617 39.083C39.0484 39.6579 39.6557 40.4465 39.0274 40.8618C38.7327 41.0566 38.3815 41.1685 38.0083 41.1685ZM39.8872 38.8602C39.6194 38.8602 39.3695 38.7443 39.1955 38.5393C39.008 38.321 38.7313 38.1918 38.4412 38.1962C38.3609 38.1962 38.285 38.2051 38.2091 38.223C38.0753 38.2541 37.9414 38.2541 37.8075 38.223C37.446 38.1338 37.0622 38.2586 36.8167 38.5393C36.4954 38.9181 35.9241 38.9671 35.5448 38.6463C35.1654 38.3254 35.1163 37.7551 35.4377 37.3763C35.5939 37.1936 35.817 37.0777 36.058 37.0599C36.1473 37.051 36.241 37.0599 36.3302 37.0777C36.7007 37.1579 37.0845 37.0332 37.3344 36.748C37.6647 36.3736 38.2359 36.338 38.6108 36.6633C38.6421 36.69 38.6688 36.7168 38.6956 36.748C38.9455 37.0332 39.3294 37.1579 39.6998 37.0777C39.789 37.0599 39.8783 37.051 39.972 37.0599C40.4719 37.1 40.8423 37.5367 40.8021 38.0313C40.7843 38.2363 40.6995 38.4279 40.5611 38.575C40.3781 38.7577 40.1371 38.8602 39.8872 38.8602ZM46.0148 37.4654H49.2237C49.3576 37.4654 49.4647 37.5724 49.4692 37.706C49.4692 37.8397 49.4558 37.9734 49.4245 38.1071C49.2058 39.1008 48.2151 39.7291 47.2198 39.5063C46.3763 39.3192 45.7738 38.5705 45.7738 37.706V37.7016C45.7738 37.5679 45.881 37.4654 46.0148 37.4654ZM53.8652 47.4294L52.5084 48.1157C52.495 48.1246 52.4772 48.1246 52.4593 48.1201C52.4415 48.1157 52.4281 48.1023 52.4236 48.0889C52.2317 47.6879 51.9416 47.0373 51.6426 46.2218C51.6337 46.204 50.9419 44.3769 50.4912 42.8797C50.4242 42.6568 50.1921 42.5321 49.969 42.5989C49.8447 42.6388 49.7425 42.7316 49.6975 42.8553C49.697 42.8567 49.6968 42.8581 49.6968 42.8595C49.6968 42.8611 49.6965 42.8626 49.696 42.864C49.6832 42.8989 49.6788 42.9338 49.6744 42.9688C49.6744 42.9732 49.6744 42.9777 49.6744 42.9777C49.6744 42.9777 49.6744 42.9777 49.6744 42.9777C49.6744 42.9955 49.6744 43.0089 49.6744 43.0267V43.0312V43.0356C49.754 44.1037 48.9088 45.0142 47.8377 45.0142H47.3016C46.2214 45.0142 45.3667 44.1001 45.4391 43.0223C45.457 42.7905 45.2784 42.59 45.0464 42.5766C44.8143 42.5633 44.6135 42.7371 44.6001 42.9688L44.2672 47.8678C44.2435 48.2155 43.9546 48.4855 43.606 48.4855C43.1693 48.4855 42.8529 48.0703 42.9447 47.6433C43.2135 46.3932 43.2685 45.3486 43.179 44.4792C43.1503 44.2002 43.1379 43.9192 43.1675 43.6403L43.3817 41.623C43.4085 41.3334 43.4843 41.0526 43.6004 40.7853C44.2222 39.4134 46.1053 40.385 47.6114 40.3913C48.1798 40.3937 48.7536 40.2171 49.2415 39.8495C49.4163 39.7186 49.574 39.5663 49.7104 39.3927C49.7156 39.386 49.7244 39.3833 49.7325 39.386C50.3082 39.5509 51.3793 39.8584 51.8791 41.525C52.4748 43.5016 53.1736 45.7228 53.8532 47.2621C53.8789 47.3204 53.9238 47.4043 53.8652 47.4294Z"
        fill="white" />
</svg>