<svg width="34" height="34" viewBox="0 0 34 34" fill="none" xmlns="http://www.w3.org/2000/svg">
    <g clip-path="url(#clip0_2910_231)">
        <path
            d="M25.2971 23.0724C25.2971 25.8577 19.635 28.1182 12.6491 28.1182C5.66419 28.1182 0 25.8577 0 23.0724C0 20.2833 5.66419 18.0244 12.6491 18.0244C19.635 18.0244 25.2971 20.2833 25.2971 23.0724Z"
            fill="#3E3E3E" />
        <path
            d="M21.1558 28.8812C28.1411 28.8812 33.8038 26.6221 33.8038 23.8354C33.8038 21.0486 28.1411 18.7896 21.1558 18.7896C14.1705 18.7896 8.50781 21.0486 8.50781 23.8354C8.50781 26.6221 14.1705 28.8812 21.1558 28.8812Z"
            fill="#3E3E3E" />
        <path
            d="M17.3594 27.1523C12.0097 27.1523 7.21249 25.9857 3.96124 24.1401C3.92884 24.3893 3.90918 24.6411 3.90918 24.8966C3.90918 29.7151 9.8374 33.6214 17.1495 33.6214C24.4627 33.6214 30.3909 29.7145 30.3909 24.8966C30.3909 24.7128 30.3803 24.5322 30.3617 24.3521C27.1259 26.0739 22.4971 27.1523 17.3583 27.1523"
            fill="#3E3E3E" />
        <path
            d="M10.554 26.4855C8.00131 25.9617 5.74616 25.1552 3.96222 24.1416C3.92981 24.3908 3.91016 24.6426 3.91016 24.8981C3.91016 29.7165 9.83838 33.6228 17.1505 33.6228C17.7269 33.6228 18.2932 33.5952 18.8516 33.5484C14.4114 32.3967 11.1453 29.7149 10.554 26.4855Z"
            fill="#262626" />
        <path
            d="M31.9386 20.6859C31.9386 23.943 25.3171 26.5828 17.1539 26.5828C8.98807 26.5828 2.36816 23.9393 2.36816 20.6859C2.36816 17.4277 8.98807 14.7837 17.1539 14.7837C25.3171 14.7837 31.9386 17.4256 31.9386 20.6859Z"
            fill="#363636" />
        <path
            d="M17.0479 25.505C24.0335 25.505 29.6965 23.2452 29.6965 20.4576C29.6965 17.67 24.0335 15.4102 17.0479 15.4102C10.0624 15.4102 4.39941 17.67 4.39941 20.4576C4.39941 23.2452 10.0624 25.505 17.0479 25.505Z"
            fill="#3E3E3E" />
        <path
            d="M7.3097 16.4417C6.39383 17.2508 5.43386 18.0004 4.48398 18.7686C3.63877 19.4497 4.71827 20.7013 5.60439 20.2184C6.43102 19.7705 7.25127 19.3312 8.12623 18.9838C7.77827 18.5301 7.4287 18.078 7.08127 17.6243C6.85195 17.996 6.59499 18.3499 6.31255 18.6831C5.70427 19.4491 6.47936 20.7449 7.43295 20.1339C8.06408 19.7312 8.68511 19.3285 9.34333 18.9715L8.07948 17.7088C7.8537 18.0859 7.67733 18.469 7.49723 18.8711C7.15989 19.617 7.92542 20.7374 8.76108 20.135C9.44002 19.6473 10.0823 19.15 10.6927 18.5774C11.513 17.8129 10.476 16.718 9.57336 17.1265C9.52236 17.1818 9.47455 17.237 9.42567 17.2928C9.31517 17.7151 9.20414 18.1364 9.0947 18.5566C9.45985 18.3256 9.86258 18.1602 10.2847 18.0679C11.1915 17.8054 11.1427 16.5719 10.2847 16.2866C10.2013 16.2584 10.119 16.2303 10.0361 16.2032V17.9855C10.4483 17.8299 10.851 17.7385 11.2835 17.6535C11.0449 17.0899 10.8085 16.5257 10.5705 15.9636C9.07186 16.7042 4.32248 17.8899 6.00283 20.4686C6.26739 20.0027 6.53408 19.541 6.80077 19.0767C6.63342 19.0603 6.46661 19.0438 6.29927 19.0263C5.2697 18.8084 4.68958 20.1387 5.58686 20.7167C5.9003 20.9414 6.23233 21.1364 6.58242 21.2989C6.73861 20.7241 6.89373 20.1504 7.04886 19.5756C6.66052 19.6005 6.2743 19.6276 5.88702 19.659C4.69064 19.7498 4.70392 21.3983 5.88702 21.5072C7.10836 21.6182 8.69733 21.9503 9.83792 21.3191C10.2008 21.1162 10.4042 20.9377 10.6752 20.6391C10.8659 20.4282 11.0667 20.229 11.2707 20.0314C12.1972 19.1373 11.0231 20.2938 11.0269 19.5857L12.4182 18.7883C12.2785 18.7054 12.1404 18.6209 12.0017 18.5386C11.8455 19.1123 11.6915 19.6861 11.5342 20.2609C11.8508 20.3857 12.1653 20.51 12.4804 20.6322L12.9479 18.9099C12.4509 18.852 11.9488 18.852 11.4519 18.9099C10.7469 18.9891 10.3113 19.6324 10.6534 20.3013C11.2606 21.4854 12.6429 21.9439 13.8675 22.2196C15.0282 22.4852 15.5196 20.7029 14.3589 20.4378C13.6353 20.2736 12.6265 20.0983 12.254 19.37C11.9863 19.8316 11.7228 20.2954 11.4545 20.7597C11.9516 20.7034 12.4534 20.7034 12.9505 20.7597C13.9222 20.8681 14.1315 19.4869 13.417 19.0369C12.7965 18.648 12.2615 18.4934 11.5363 18.4127C10.5795 18.3054 10.3384 19.6946 11.071 20.1334L11.4864 20.3836C12.0936 20.7491 12.8724 20.2789 12.8767 19.5851C12.8873 18.1704 11.8731 17.4028 10.6008 18.2055C10.0738 18.5396 9.63658 19.0348 9.22433 19.4932C8.58258 20.2046 6.73914 19.7349 5.88967 19.6584V21.5067C6.27678 21.4773 6.66407 21.4504 7.05152 21.4259C7.91055 21.368 8.3892 20.1557 7.51902 19.7031C7.16936 19.5408 6.83585 19.3459 6.52292 19.1208C6.28439 19.685 6.04692 20.2471 5.81211 20.8107C6.13822 20.8814 6.47035 20.9207 6.80395 20.9281C7.48289 20.943 7.9828 20.1206 7.60083 19.5357C7.36867 19.1777 11.064 17.7789 11.5076 17.5611C12.499 17.0729 11.769 15.6789 10.7942 15.8717C10.3644 15.9562 9.9617 16.0497 9.54786 16.2037C8.69573 16.5235 8.64527 17.6849 9.54786 17.9861C9.63233 18.0137 9.71414 18.0419 9.79755 18.0679V16.2866C9.1983 16.463 8.68777 16.6208 8.16395 16.9602C7.78358 17.2089 7.5153 17.8129 7.83298 18.2251C8.59798 19.2212 9.39752 19.2287 10.5105 18.7229C10.1365 18.2405 9.76248 17.756 9.39008 17.2721C8.89873 17.7279 8.37844 18.1515 7.83245 18.5402L9.09736 19.8051C9.27852 19.4034 9.45223 19.0194 9.67961 18.6422C10.1689 17.8267 9.21211 16.9448 8.41364 17.3773C7.75542 17.7353 7.13492 18.1391 6.50433 18.5402L7.62261 19.991C7.99342 19.5224 8.35361 19.0565 8.68245 18.5577C9.10427 17.9175 8.39717 16.8975 7.63748 17.2004C6.61323 17.6094 5.6437 18.0971 4.67523 18.6209C5.04817 19.1065 5.4227 19.5915 5.7967 20.0749C6.74498 19.3089 7.70495 18.5566 8.6203 17.7486C9.51545 16.9592 8.20273 15.6587 7.31236 16.4428"
            fill="#7A7A7A" />
        <path
            d="M9.80255 21.404C10.3667 22.0277 11.052 22.262 11.8702 22.389C11.952 21.7839 12.0338 21.1782 12.1167 20.5731C11.9416 20.5666 11.7701 20.5212 11.6146 20.4403C11.5312 21.0465 11.451 21.6516 11.3692 22.2583C12.505 22.2588 14.621 22.3858 14.9748 20.8951C15.3982 19.1127 14.0722 17.6598 12.5289 17.0361L12.2819 18.8514H12.4487C13.5372 18.8514 13.6456 17.3793 12.6941 17.0361C12.1422 16.8363 11.6125 16.6488 11.0898 16.3821C10.9336 16.9548 10.7795 17.5296 10.6223 18.105C11.1397 18.1315 13.227 18.659 13.0549 19.4246C12.9555 19.8623 13.1255 20.2145 13.4783 20.4695C14.6316 21.2967 15.7695 22.2471 17.188 22.5563C18.2377 22.7858 18.7637 21.4614 17.9004 20.8669C17.7311 20.7514 17.5444 20.6637 17.3474 20.6071V22.389L17.9291 22.2227C19.0718 21.897 18.5841 20.1115 17.4366 20.4409C17.2438 20.4977 17.0493 20.554 16.8544 20.6071C15.9587 20.8637 15.9911 22.118 16.8544 22.389C16.8926 22.4139 16.9303 22.4389 16.9665 22.4639C17.2039 21.8991 17.4425 21.3371 17.6794 20.7734C16.4336 20.4998 15.4248 19.5999 14.4127 18.8737L14.8367 19.9181C15.353 17.621 12.5024 16.3561 10.6217 16.2551C9.71489 16.2073 9.34195 17.5641 10.1553 17.9785C10.8194 18.3148 11.5057 18.5655 12.2043 18.8184C12.2856 18.2128 12.3669 17.6082 12.4503 17.0015H12.2835C11.1695 17.0015 11.1185 18.4476 12.038 18.8184C12.4296 18.9767 13.8098 20.1481 12.9146 20.3665C12.4349 20.4844 11.8611 20.4116 11.3708 20.4085C10.2493 20.4079 10.2143 21.8481 11.1243 22.2227C11.4452 22.3565 11.7751 22.389 12.1188 22.4224C13.1515 22.526 13.3911 20.7676 12.3642 20.6071C11.8696 20.5296 11.4765 20.5009 11.1105 20.0987C10.3094 19.2126 9.00514 20.5232 9.80467 21.404"
            fill="#7A7A7A" />
        <path
            d="M27.7201 20.7094C26.9264 21.0515 26.1306 21.383 25.3486 21.7512C24.5263 22.1401 24.9146 23.5441 25.8151 23.4746C26.7033 23.4039 27.556 23.2111 28.432 23.0596L27.5331 21.5174C26.4191 22.4997 24.2691 22.2867 22.8778 22.2888C21.8546 22.2899 21.5879 23.8932 22.6308 24.1046C23.5854 24.2964 24.4418 24.2794 25.397 24.1046C26.2783 23.9415 26.2895 22.4737 25.397 22.3223C23.638 22.0221 21.9141 22.1863 20.1429 22.2755C18.2432 22.3743 16.3381 22.0428 14.4383 22.0046C13.2287 21.9817 13.2744 23.7423 14.4383 23.8528C15.4929 23.9532 16.4837 23.9814 17.5276 23.8204C18.411 23.6855 18.4195 22.1634 17.5276 22.0386C15.5816 21.7634 12.528 21.2683 10.9411 22.7494C11.3141 22.7005 11.6875 22.6538 12.0621 22.6044C11.1488 22.2171 10.3275 21.7581 9.31975 21.7214C8.67003 21.6975 8.09628 22.5465 8.52235 23.1112C8.71094 23.3651 8.90166 23.6164 9.08866 23.8693C9.51153 23.448 9.93281 23.0278 10.3536 22.6044C8.98028 21.8585 7.81525 21.0053 6.19122 21.0563C5.29341 21.0855 4.90081 22.3143 5.72478 22.7786C8.75769 24.4919 12.3776 25.4115 15.861 25.3711C17.0563 25.3562 17.0489 23.567 15.861 23.5229C15.2273 23.4969 14.5972 23.4512 13.9629 23.4273C12.9323 23.3869 12.6884 25.0439 13.7185 25.2431C16.5171 25.785 19.2791 25.564 22.0788 25.1491C23.1333 24.9918 22.8454 23.3322 21.8339 23.3322H21.0737V25.1804C22.253 25.1772 23.5886 25.2208 24.6585 24.6316C25.0628 24.4096 27.2532 22.2086 27.4338 22.3063C27.879 22.5449 28.4378 22.42 28.6987 21.9743C28.9218 21.5923 29.1625 21.229 29.3617 20.8348H27.7679C28.0128 21.1163 28.2025 21.4335 28.3364 21.7831C28.8198 21.4096 29.3048 21.0372 29.7883 20.6637C29.1508 19.8791 28.4193 19.4572 27.4853 19.0986C27.0826 18.9446 26.6555 19.2028 26.4403 19.5231C26.2762 19.725 26.1519 19.9449 26.0605 20.1877C26.545 20.1256 27.0279 20.0623 27.5113 19.9996C26.8483 19.4206 26.3713 18.7183 25.6185 18.2439C24.8604 17.7684 23.8091 18.7401 24.3536 19.5077C24.5512 19.7871 24.7356 20.0161 24.973 20.2642C25.2721 19.7505 25.5718 19.2346 25.8724 18.7204C24.981 18.5254 24.1719 18.2449 23.2544 18.2141C22.6679 18.1923 22.1866 18.8224 22.363 19.3823C22.4639 19.7393 22.5904 20.0878 22.7418 20.4268L23.3883 19.2878C23.1562 19.3738 22.9846 19.4673 22.7923 19.6209C22.4671 19.8806 22.4629 20.4071 22.6467 20.7402C22.7923 20.9841 22.9187 21.2375 23.026 21.4999C23.3734 21.0462 23.7235 20.5941 24.0694 20.1415C23.018 19.9598 22.2785 18.824 21.5088 18.1525C20.7602 17.5017 19.9564 17.1984 18.9901 17.0741C17.9276 16.9391 17.7783 18.6099 18.7447 18.8893C20.0149 19.257 21.2755 19.3791 22.5936 19.3967C23.7995 19.4142 23.7655 17.6377 22.5936 17.5479C20.7108 17.4045 20.3299 18.5212 19.1904 19.7154L20.7677 20.3689C20.6933 19.6612 22.1367 19.258 22.609 19.0939C23.7814 18.68 24.7308 18.8739 25.823 19.4604C26.8744 20.0236 27.8067 18.4277 26.7564 17.8614C25.0262 16.9327 23.5711 16.7936 21.7303 17.4433C20.4702 17.8869 18.7532 18.7921 18.92 20.3657C18.9997 21.1163 19.8911 21.654 20.4973 21.0186C21.1868 20.2971 21.4344 19.3042 22.5941 19.3924V17.5437C21.4413 17.5288 20.3474 17.4252 19.2366 17.1038L18.9906 18.9196C20.9042 19.164 21.6416 21.5865 23.5812 21.9201C24.412 22.0625 24.9746 21.3278 24.6251 20.5606C24.5188 20.2988 24.3921 20.0457 24.2463 19.8036C24.1969 20.1755 24.1491 20.549 24.1018 20.9224C24.0274 20.9702 23.9562 21.0181 23.8845 21.0653C24.3132 20.9091 24.7287 20.4231 24.5289 19.9285C24.3753 19.591 24.2486 19.242 24.1501 18.8846C23.8521 19.2734 23.5562 19.665 23.2576 20.0544C23.9939 20.0809 24.6729 20.3407 25.3816 20.4948C26.2783 20.6913 26.9413 19.64 26.281 18.951C26.171 18.8256 26.0621 18.697 25.9532 18.5685C25.5298 18.9903 25.1096 19.4121 24.6872 19.8339C25.2859 20.2084 25.6785 20.8396 26.2061 21.3012C26.6167 21.6593 27.3908 21.689 27.6564 21.1142C27.7478 20.873 27.8742 20.651 28.0373 20.4501C27.6898 20.5936 27.3408 20.7333 26.9934 20.8767C27.6463 21.1259 28.0468 21.4308 28.4819 21.9642C29.1816 22.8264 30.3652 21.7305 29.9323 20.8443C29.7995 20.4977 29.6069 20.1771 29.3633 19.8971C28.9856 19.3786 28.1127 19.223 27.7695 19.8971C27.5682 20.2908 27.3307 20.6552 27.1065 21.0372C27.5268 20.9251 27.9502 20.8162 28.3714 20.7051C27.3376 20.1489 26.5153 20.3646 25.6993 21.179C25.1287 21.7448 24.7876 22.3456 24.1098 22.8243C23.2534 23.4262 22.0729 23.3258 21.0806 23.3279C19.8895 23.3301 19.8895 25.1761 21.0806 25.1761H21.8403L21.5943 23.3614C19.1394 23.7248 16.6723 23.9288 14.2173 23.4549C14.1339 24.0595 14.0527 24.6656 13.9693 25.2696C14.6036 25.2957 15.2331 25.3414 15.8674 25.3669V23.5186C12.7086 23.5537 9.41538 22.7324 6.66244 21.179C6.50838 21.7549 6.35219 22.3281 6.19706 22.9013C7.45613 22.8626 8.37625 23.6254 9.4276 24.1981C10.1751 24.604 11.2833 23.7221 10.6914 22.9327C10.5028 22.6787 10.3137 22.4269 10.123 22.173C9.85631 22.6373 9.59175 23.1011 9.3256 23.5638C9.98275 23.5877 10.5459 23.9468 11.134 24.1965C11.5335 24.366 11.9181 24.3639 12.2533 24.0526C13.1936 23.176 15.8839 23.6541 17.0452 23.8161V22.0343C16.175 22.165 15.317 22.0821 14.4463 22.0003V23.8486C16.1569 23.882 17.8553 24.1014 19.567 24.1328C21.36 24.1668 23.1238 23.7944 24.9114 24.1004V22.318C24.3259 22.4641 23.7135 22.4641 23.128 22.318L22.8831 24.1328C24.8604 24.1306 27.2718 24.2087 28.8448 22.819C29.6082 22.1496 28.7736 21.1333 27.947 21.2752C27.2372 21.3947 26.5423 21.5647 25.822 21.6216C25.9766 22.1964 26.1333 22.768 26.2889 23.3428C27.0693 22.9762 27.8662 22.6426 28.6588 22.3021C29.7495 21.8309 28.806 20.2392 27.726 20.7083"
            fill="#4A4A4A" />
        <path
            d="M16.0427 25.5425C17.2088 25.6009 18.3739 25.6009 19.5399 25.5425C20.5249 25.491 20.8654 23.8765 19.7864 23.7262C18.4498 23.5402 17.1307 23.621 15.7888 23.6284C15.8701 24.2351 15.9535 24.8381 16.0348 25.4442C16.9969 25.3034 17.9048 25.1839 18.7989 24.7791C19.8842 24.2861 18.9428 22.6955 17.866 23.1854C17.1488 23.5094 16.3126 23.5519 15.5428 23.6635C14.4915 23.8186 14.7714 25.4867 15.7883 25.4809C16.9512 25.4708 18.139 25.3491 19.2961 25.5096C19.3769 24.9045 19.4587 24.2999 19.5405 23.6938C18.3755 23.7538 17.2082 23.7538 16.0433 23.6938C14.8506 23.6337 14.857 25.4841 16.0433 25.5446M24.6968 20.1657C23.1891 20.6173 21.6819 20.8877 20.1089 20.9589C19.1203 21.0035 18.7882 22.6291 19.8629 22.7747C20.1545 22.8177 20.4498 22.8288 20.7438 22.8076C21.7244 22.7412 22.0783 21.1671 20.9919 20.9939C20.9218 20.9818 20.8517 20.9703 20.7815 20.9594C20.9961 21.1735 21.2134 21.3897 21.4269 21.6065C21.4025 21.9438 21.4105 21.947 21.4461 21.616C21.4309 21.4748 21.41 21.3343 21.3834 21.1948C21.1773 20.0212 19.3986 20.5195 19.601 21.6846C19.5208 21.224 19.6085 22.0017 19.6457 22.0974C19.8082 22.508 20.0659 22.7056 20.4999 22.7752C20.5817 22.1696 20.6646 21.565 20.7443 20.9594C20.6143 20.9665 20.4846 20.9781 20.3554 20.9939C20.2747 21.598 20.1923 22.2031 20.1094 22.8076C21.8316 22.7316 23.5377 22.4423 25.1887 21.9465C26.3277 21.6081 25.8406 19.8231 24.6968 20.1657ZM15.979 17.2768C17.5074 17.2725 19.0331 17.2269 20.5584 17.34C20.476 16.7349 20.3947 16.1288 20.3119 15.5247C19.7259 15.6655 19.1234 15.6379 18.5226 15.683C17.5037 15.7579 17.2407 17.195 18.2782 17.4983C18.8063 17.654 19.3923 17.6986 19.9023 17.9132C19.975 17.3501 20.0462 16.7864 20.1222 16.2244C19.0756 16.6117 18.0222 16.9618 16.9432 17.2417C16.2914 17.4107 16.0167 18.3186 16.5352 18.7866C16.7663 18.9954 16.9682 19.2015 17.2311 19.3758V17.782C17.1036 17.8659 16.9767 17.9509 16.8497 18.0365C16.3886 18.3435 16.1835 19.0799 16.6622 19.4889C16.9363 19.7237 17.1663 19.9639 17.4845 20.1418L17.7055 18.4503C17.4729 18.5502 17.2933 18.6437 17.1068 18.8164C16.6967 19.1925 16.7589 20.0228 17.2933 20.2677C17.4973 20.3602 17.68 20.4409 17.8979 20.4866C19.0602 20.7283 19.5548 18.9476 18.3898 18.7053C18.3345 18.6936 18.2814 18.6819 18.2278 18.6719L18.4142 20.1222C18.343 20.1594 18.2703 20.1971 18.198 20.2337C18.886 19.9458 19.1904 18.9725 18.4185 18.5428C18.2421 18.4439 18.1231 18.3101 17.9701 18.1783C17.9064 18.6623 17.8474 19.1457 17.7826 19.6286C17.9106 19.5463 18.037 19.4613 18.1645 19.3752C18.7569 18.981 18.7601 18.173 18.1645 17.7762C18.0608 17.6729 17.9538 17.573 17.8437 17.4765C17.7061 17.9913 17.5706 18.5061 17.4341 19.0214C18.513 18.7425 19.5697 18.3903 20.6131 18.0025C21.2628 17.7639 21.6522 16.6595 20.8341 16.3147C20.1599 16.0294 19.4666 15.9168 18.7691 15.7117C18.6878 16.3179 18.6039 16.9235 18.5221 17.5275C19.2919 17.4723 20.0494 17.4861 20.8043 17.3039C21.8668 17.0489 21.555 15.5619 20.5578 15.4886C19.0326 15.3754 17.5069 15.4201 15.9784 15.4243C14.7874 15.4318 14.7874 17.2789 15.9784 17.2768M22.6642 17.4973C24.1246 17.96 25.4979 18.623 26.8308 19.3763C27.0672 18.8132 27.3047 18.2495 27.5422 17.6869C27.1655 17.5833 26.7952 17.5653 26.4069 17.5259C25.9941 17.4824 25.6291 17.842 25.5149 18.2033C25.6833 17.6609 26.3176 17.6832 25.8772 17.6959C25.6414 17.6965 25.4034 17.672 25.1712 17.6513C24.7563 17.612 24.3435 17.5403 23.927 17.5259C23.1073 17.4967 22.7211 18.5481 23.2736 19.1038C23.7018 19.5357 24.1586 19.6626 24.7526 19.6913C25.9463 19.7545 25.9394 17.9063 24.7526 17.8431C24.6973 17.8266 24.6384 17.8118 24.582 17.7958C24.3632 18.3212 24.1469 18.8472 23.9281 19.3747C24.9412 19.4082 26.8733 20.0595 27.2983 18.6952C27.0014 18.9226 26.7054 19.1484 26.4079 19.3747C26.6247 19.3869 26.8399 19.4193 27.0529 19.4682C28.0617 19.746 28.6838 18.2989 27.7637 17.7783C26.2964 16.9485 24.7659 16.2228 23.1567 15.7139C22.0134 15.3547 21.53 17.1413 22.6642 17.4973ZM27.8524 20.91C27.6511 21.1379 27.4407 21.3509 27.208 21.5459C27.2649 21.5066 27.2473 21.5188 27.1565 21.5852C27.1018 21.624 27.0465 21.6601 26.9907 21.6973C26.9335 21.7326 26.8754 21.7664 26.8165 21.7988C26.8319 21.7882 26.5397 21.9353 26.6714 21.8795C26.2071 22.0734 25.8804 22.4836 26.0249 23.0169C26.146 23.4547 26.6969 23.8579 27.1623 23.6624C27.948 23.3336 28.5946 22.8544 29.1619 22.2169C29.4961 21.8402 29.5317 21.2808 29.1619 20.9095C28.8193 20.5711 28.1866 20.5334 27.8524 20.9095M8.4772 23.1248C8.96648 23.1253 9.45151 23.1912 9.93813 23.2534C10.4396 23.3155 10.8614 22.7843 10.8614 22.329C10.8614 21.7759 10.4375 21.4673 9.93813 21.4035C9.45151 21.3435 8.96648 21.2814 8.4772 21.2766C7.97091 21.2723 7.55176 21.7016 7.55176 22.2025C7.55176 22.7094 7.97091 23.1205 8.4772 23.1248Z"
            fill="#424242" />
        <path
            d="M12.4037 2.8069C9.59288 4.10633 8.41935 6.47624 9.73685 9.11443C10.5231 10.6885 11.7731 12.0443 12.7899 13.502C14.0873 15.3656 14.0623 17.0704 13.0317 19.0392C12.63 19.8037 13.9125 20.4736 14.3162 19.7044C15.7729 16.9275 15.4648 14.7404 13.6272 12.2031C11.6531 9.47621 8.58138 6.05815 13.1554 3.94483C14.0081 3.55065 13.2543 2.41271 12.4043 2.8053"
            fill="#4D4D4D" />
        <path
            d="M17.2788 21.2416C18.6016 19.7632 18.9044 18.2677 18.2292 16.4731C17.4897 14.5096 16.0298 12.9132 16.0059 10.7606C15.9852 8.97827 16.9823 7.24162 17.6761 5.60909C18.388 3.93193 18.7439 2.25371 18.362 0.476148C18.1845 -0.357383 16.7523 -0.00463277 16.926 0.826242C17.6087 4.02968 15.082 6.8129 14.5949 9.88937C14.3691 11.3221 14.6772 12.7236 15.3402 14.0352C16.3825 16.0949 18.116 18.196 16.2248 20.3098C15.6361 20.9691 16.6822 21.9036 17.2788 21.2406"
            fill="#4D4D4D" />
        <path
            d="M21.8667 19.1946C21.8491 17.7469 21.634 16.4241 21.1027 15.054C20.853 14.4144 20.4275 13.8534 20.1959 13.2047C19.9632 12.555 20.4259 11.7858 20.7611 11.2444C21.8868 9.43074 23.0731 8.00858 21.8635 5.94468C21.4188 5.18924 20.1353 5.85596 20.5741 6.60821C21.7556 8.62111 19.2731 10.251 18.7583 12.1337C18.4916 13.1038 18.8768 13.9719 19.3528 14.832C20.122 16.2291 20.3563 17.6529 20.3738 19.1946C20.3877 20.0441 21.8773 20.0441 21.8667 19.1946Z"
            fill="#4D4D4D" />
    </g>
    <defs>
        <clipPath id="clip0_2910_231">
            <rect width="34" height="34" fill="white" />
        </clipPath>
    </defs>
</svg>