<svg width="35" height="35" viewBox="0 0 35 35" fill="none" xmlns="http://www.w3.org/2000/svg">
    <path
        d="M17.5 1.09375C8.4391 1.09375 1.09375 8.4391 1.09375 17.5C1.09375 26.5609 8.4391 33.9062 17.5 33.9062C26.5609 33.9062 33.9062 26.5609 33.9062 17.5C33.9062 8.4391 26.5609 1.09375 17.5 1.09375ZM27.5542 27.5542C25.0611 30.0398 21.732 31.5082 18.2154 31.6732C14.6989 31.8383 11.2468 30.6882 8.53189 28.4471C5.81696 26.206 4.03366 23.0344 3.52945 19.5503C3.02525 16.0661 3.83627 12.5191 5.80447 9.60023C7.77268 6.6814 10.7571 4.59989 14.1762 3.76129C17.5953 2.92268 21.2041 3.38705 24.2995 5.06392C27.3949 6.74079 29.7551 9.51003 30.9203 12.8321C32.0854 16.1541 31.9721 19.7909 30.6022 23.0339C29.8883 24.7237 28.8531 26.2589 27.5542 27.5542Z"
        fill="black" />
    <path
        d="M11.4845 21.8751H23.5157V24.0626H11.4845V21.8751ZM14.3986 15.5889L12.7551 14.128L14.216 12.4846L12.5811 11.0312L11.1202 12.6747L9.47676 11.2139L8.02344 12.8488L9.66693 14.3097L8.20609 15.9531L9.84098 17.4064L11.3019 15.7629L12.9453 17.2238L14.3986 15.5889ZM26.2472 12.4846L24.6123 11.0312L23.1514 12.6747L21.508 11.2139L20.0547 12.8488L21.6982 14.3097L20.2373 15.9531L21.8722 17.4064L23.3331 15.7629L24.9766 17.2238L26.4299 15.5889L24.7864 14.128L26.2472 12.4846Z"
        fill="black" />
</svg>