<svg width="42" height="42" viewBox="0 0 42 42" fill="none" xmlns="http://www.w3.org/2000/svg">
    <path
        d="M40.6875 21C40.6875 21 34.0594 34.125 21 34.125C7.94063 34.125 1.3125 21 1.3125 21C1.3125 21 7.94063 7.875 21 7.875C34.0594 7.875 40.6875 21 40.6875 21Z"
        fill="#231F20" />
    <path
        d="M37.4062 21.0004C37.4062 21.0004 31.8938 31.9598 21 31.9598C10.1062 31.9598 4.59375 21.0004 4.59375 21.0004C4.59375 21.0004 10.1062 10.041 21 10.041C31.8938 10.041 37.4062 21.0004 37.4062 21.0004Z"
        fill="white" />
    <path
        d="M29.7939 21C29.7939 25.9219 25.8564 29.8594 20.9346 29.8594C16.0127 29.8594 12.0752 25.9219 12.0752 21C12.0752 16.0781 16.0127 12.1406 20.9346 12.1406C25.8564 12.1406 29.7939 16.0781 29.7939 21Z"
        fill="#414042" />
    <path
        d="M25.8564 21C25.8564 23.6906 23.6252 25.9219 20.9346 25.9219C18.2439 25.9219 16.0127 23.6906 16.0127 21C16.0127 18.3094 18.2439 16.0781 20.9346 16.0781C23.6252 16.0781 25.8564 18.3094 25.8564 21Z"
        fill="#231F20" />
</svg>