<svg width="38" height="38" viewBox="0 0 38 38" fill="none" xmlns="http://www.w3.org/2000/svg">
    <path
        d="M10.2142 5.23244C9.89903 5.23325 9.58436 5.25681 9.27262 5.30295C6.76165 5.67427 4.66943 7.46954 3.31501 10.1932C1.96052 12.9169 1.38473 16.5438 1.95784 20.3839C2.53104 24.2241 4.14121 27.5275 6.2327 29.7416C8.32418 31.9556 10.8503 33.068 13.3613 32.6966C15.8723 32.3252 17.9646 30.5298 19.3191 27.8061C19.6356 27.1698 19.909 26.4836 20.1357 25.7576C17.9712 25.7628 15.7691 25.5666 13.3016 23.955C16.8996 22.8892 19.4138 20.356 20.7922 18.5932C20.7583 17.9782 20.7701 18.2451 20.676 17.6155C20.1029 13.7754 18.4929 10.4718 16.4014 8.25775C14.5713 6.32042 12.4084 5.2268 10.2142 5.23244ZM35.597 14.1708C35.4653 14.167 35.3152 14.1932 35.1479 14.2557C30.6144 15.9507 28.1539 19.4314 26.0015 22.2687C24.4587 22.4841 23.0357 22.5221 20.4444 24.6171C19.8627 25.0874 24.5631 28.546 27.5048 22.6229C28.2356 21.1515 29.1022 19.5225 35.3023 16.3207C36.5421 15.6804 36.5185 14.1966 35.5969 14.1708H35.597ZM18.5296 14.678L19.504 15.5916C18.2132 16.9685 15.9787 17.3587 14.1957 17.1809L14.3283 15.8515C15.7628 15.9946 17.7342 15.5263 18.5296 14.678ZM25.631 19.6595C25.2152 19.6518 24.6896 20.1777 24.22 20.2185C23.4237 20.2877 22.5202 19.5922 21.8321 19.9989C21.3802 20.266 21.5728 21.0703 21.2024 21.4421C20.6947 21.9518 19.4781 21.6387 19.2274 22.3131C19.0509 22.7876 19.879 23.6852 19.879 23.6852C20.9498 22.6126 22.3545 21.1538 25.717 21.2642C25.717 21.2642 26.2807 20.0927 25.8993 19.7628C25.8171 19.6916 25.727 19.6614 25.631 19.6596V19.6595ZM10.3954 21.3685L11.1359 22.4804C10.1415 23.2091 9.31708 24.0984 9.90311 25.2516C10.3287 25.882 10.9768 26.628 11.8052 26.6365L11.8277 27.9721C10.4811 27.8816 9.28776 26.9312 8.71865 25.8696C7.86239 23.8593 8.92409 22.3676 10.3955 21.3685H10.3954Z"
        fill="#101010" />
</svg>