<svg width="36" height="36" viewBox="0 0 36 36" fill="none" xmlns="http://www.w3.org/2000/svg">
    <path
        d="M30.6348 11.6606C29.3652 5.2605 24.8939 1.125 19.243 1.125H19.2425C19.063 1.125 18.8813 1.1295 18.6996 1.13738C13.7693 1.36238 10.544 2.83669 8.55046 5.77688C6.62108 8.62088 5.85439 12.7811 6.0642 19.2668C6.10358 20.5037 5.85833 22.0607 5.59845 23.7083C5.04045 27.2498 4.4622 30.9116 6.41014 33.1459C7.41083 34.2934 8.93633 34.875 10.9456 34.875C11.4085 34.875 11.9075 34.8446 12.4295 34.7839C15.1131 34.4711 16.1324 33.0744 17.1185 31.7239C18.2041 30.2366 19.4354 28.5508 23.4173 26.9651C29.9457 24.3641 31.7356 17.2091 30.6348 11.6606ZM22.9206 25.7619C14.8746 28.9665 16.8395 32.9636 12.2748 33.4946C11.7955 33.5503 11.3528 33.5768 10.9461 33.5768C3.37883 33.5768 7.54977 24.3641 7.38439 19.2246C6.99739 7.27031 10.0197 2.83331 18.7615 2.43394C18.923 2.42663 19.0833 2.42269 19.2425 2.42269C30.6916 2.42325 33.7617 21.4442 22.9206 25.7619Z"
        fill="black" />
    <path
        d="M26.0347 15.1322C25.8764 13.4242 25.4167 11.7579 24.6769 10.2103C23.9085 8.66513 22.8403 7.18013 21.2574 6.13276C20.4733 5.60907 19.5429 5.22095 18.5439 5.08482C17.5477 4.94026 16.511 5.05782 15.5784 5.36607C14.724 5.65295 13.874 6.02982 13.0865 6.5642C12.3013 7.09576 11.5875 7.79776 11.0576 8.63588C10.5435 9.48188 10.2229 10.4421 10.1368 11.3899C10.0606 12.31 10.1562 13.2362 10.4186 14.1214C10.7927 15.3971 11.4024 16.5598 12.2119 17.547C11.5661 17.3783 10.9198 17.2939 10.2707 17.2663L10.2026 17.4896C10.9001 17.9104 11.5903 18.3114 12.182 18.7609C12.474 18.9859 12.74 19.2272 12.9364 19.464C13.1372 19.7036 13.2289 19.9455 13.2373 20.1075C13.2418 20.2712 13.1878 20.4084 13.068 20.6149C12.956 20.8185 12.767 21.0548 12.5392 21.2859C12.0769 21.75 11.5025 22.2191 10.904 22.7029C10.3044 23.2108 9.68454 23.6653 9.02979 24.4343C8.8661 24.6435 8.68498 24.8573 8.51229 25.2718C8.39735 25.5546 8.35856 25.8626 8.39979 26.1651C8.44873 26.5543 8.69173 26.9199 8.9066 27.105C9.13216 27.3069 9.30541 27.3885 9.49779 27.4723C9.65529 27.537 9.77791 27.5696 9.8966 27.6051C10.1435 27.672 10.3944 27.7226 10.6459 27.7564C11.6215 27.8787 12.6121 27.7331 13.5112 27.3351C14.3685 26.9649 15.0722 26.3963 15.6797 25.7938C16.286 25.1841 16.7861 24.5124 17.244 23.8301C17.6969 23.1479 18.0998 22.4337 18.4494 21.6932C18.7965 20.9507 19.1238 20.1784 19.3297 19.3363C19.5339 18.5061 19.6054 17.5864 19.4484 16.6948C19.1452 14.8836 17.811 13.2894 16.1899 12.4778C14.9282 11.8309 13.4775 11.6458 12.1708 11.9029C12.3204 11.1615 12.6017 10.4848 13.0421 9.92401C13.8178 8.88788 15.0339 8.12457 16.4149 7.52888C17.0274 7.25776 17.6715 7.11488 18.3245 7.14526C18.9765 7.17845 19.6346 7.37813 20.2522 7.71957C21.4864 8.41595 22.5129 9.60451 23.2751 10.9286C24.0502 12.2556 24.5869 13.7462 24.8574 15.2829C25.1336 16.8169 25.1477 18.4172 24.7517 19.9359C24.363 21.4479 23.5164 22.8739 22.2165 23.8543L22.3515 24.0473C23.0762 23.6084 23.7156 23.0421 24.2387 22.3755C24.7612 21.7067 25.1623 20.9456 25.452 20.1486C26.0308 18.5483 26.1787 16.8208 26.0347 15.1322ZM13.3633 13.0166C14.0479 13.2821 14.6722 13.6174 15.219 14.028C16.331 14.8448 17.0465 15.9523 17.528 17.1887C17.6569 17.4986 17.7632 17.8249 17.8447 18.1641C17.8937 18.3306 17.9218 18.5128 17.9567 18.6771C17.9865 18.8886 18.0073 19.0213 18.0225 19.2165C18.0765 19.9371 17.9938 20.6993 17.739 21.4097C17.2378 22.8362 16.1561 24.0624 14.8652 24.7959C13.6918 25.4625 12.4138 25.7871 11.3467 25.6358C11.7152 25.3151 12.1517 24.9568 12.5668 24.5889C13.1698 24.0433 13.793 23.4611 14.3364 22.7029C14.6059 22.3209 14.8663 21.8974 15.0452 21.3692C15.2212 20.85 15.2634 20.1632 15.0289 19.5726C14.8022 18.9791 14.378 18.5809 13.9809 18.3058C13.7008 18.1119 13.3989 17.9514 13.0815 17.8277C12.5364 16.5013 12.1702 15.1401 12.0622 13.8249C12.0319 13.4211 12.0341 13.0251 12.0656 12.6403C12.5173 12.741 12.9493 12.8614 13.3633 13.0166Z"
        fill="black" />
</svg>