<svg width="36" height="36" viewBox="0 0 36 36" fill="none" xmlns="http://www.w3.org/2000/svg">
    <path
        d="M15.2863 1.92871C13.3245 1.96176 11.5527 3.13176 10.7511 4.9409L20.3488 7.83988C20.7706 5.3234 19.2589 2.88355 16.8261 2.14316C16.3902 2.01098 15.9331 1.93855 15.4761 1.92871H15.2863ZM10.3855 6.15309C9.95657 8.6766 11.4683 11.1235 13.9081 11.8618C16.355 12.6 18.9636 11.3907 19.9902 9.04926L10.3855 6.15309ZM29.0534 9.26723C27.2745 9.27426 25.3831 10.1321 23.9558 12.15L15.1808 24.5883C12.8253 27.9211 13.8519 31.4086 16.1722 33.0539C18.4995 34.7063 22.1206 34.5164 24.4761 31.1836L33.2441 18.7524C35.5995 15.4125 34.573 11.9321 32.2527 10.2797C31.3808 9.66098 30.3331 9.30238 29.2292 9.26723H29.0534ZM28.9269 10.4836C29.0183 10.4836 29.1097 10.4836 29.1941 10.4907C30.0448 10.5258 30.8464 10.8282 31.5214 11.3133C33.3284 12.593 34.2355 15.1454 32.2034 18.0211L27.6683 24.4547C25.1511 23.7797 21.9167 21.4805 20.4472 19.3219L24.9964 12.8813C26.1847 11.2008 27.598 10.5118 28.9269 10.4836ZM6.41633 15.8414C5.73993 15.8485 5.07266 15.9891 4.45251 16.2633C2.12446 17.2829 0.912974 19.8844 1.62313 22.3313L10.8144 18.3164C9.89329 16.7625 8.21985 15.8204 6.41633 15.8414ZM11.3136 19.4696L2.12376 23.4914C3.42102 25.6993 6.15266 26.5852 8.49407 25.5657C10.8284 24.5391 12.0378 21.9235 11.3136 19.4696Z"
        fill="black" />
</svg>