<svg width="36" height="36" viewBox="0 0 36 36" fill="none" xmlns="http://www.w3.org/2000/svg">
    <path
        d="M29.6249 7.995C29.1276 7.995 28.6507 8.19254 28.2991 8.54417C27.9474 8.89581 27.7499 9.37272 27.7499 9.87V16.755H26.5049V6.12C26.5049 5.62272 26.3073 5.14581 25.9557 4.79417C25.6041 4.44254 25.1272 4.245 24.6299 4.245C24.1326 4.245 23.6557 4.44254 23.3041 4.79417C22.9524 5.14581 22.7549 5.62272 22.7549 6.12V16.755H21.4949V4.875C21.4949 4.37772 21.2973 3.90081 20.9457 3.54917C20.5941 3.19754 20.1172 3 19.6199 3C19.1226 3 18.6457 3.19754 18.2941 3.54917C17.9424 3.90081 17.7449 4.37772 17.7449 4.875V16.755H16.4999V7.995C16.4999 7.49772 16.3023 7.02081 15.9507 6.66917C15.5991 6.31754 15.1222 6.12 14.6249 6.12C14.1276 6.12 13.6507 6.31754 13.2991 6.66917C12.9474 7.02081 12.7499 7.49772 12.7499 7.995V22.89L7.36488 19.89C7.13773 19.7552 6.87901 19.6827 6.61488 19.68C6.25027 19.6805 5.89834 19.8138 5.62488 20.055L4.00488 21.555L13.8149 31.5C14.2763 31.976 14.8289 32.3541 15.4397 32.6118C16.0505 32.8696 16.707 33.0016 17.3699 33H26.5049C27.8296 33 29.1001 32.4737 30.0369 31.537C30.9736 30.6003 31.4999 29.3298 31.4999 28.005V9.87C31.4999 9.37272 31.3023 8.89581 30.9507 8.54417C30.5991 8.19254 30.1222 7.995 29.6249 7.995ZM16.4999 22.5C16.2032 22.5 15.9132 22.412 15.6665 22.2472C15.4199 22.0824 15.2276 21.8481 15.1141 21.574C15.0005 21.2999 14.9708 20.9983 15.0287 20.7074C15.0866 20.4164 15.2294 20.1491 15.4392 19.9393C15.649 19.7296 15.9163 19.5867 16.2072 19.5288C16.4982 19.4709 16.7998 19.5006 17.0739 19.6142C17.348 19.7277 17.5823 19.92 17.7471 20.1666C17.9119 20.4133 17.9999 20.7033 17.9999 21C17.9999 21.3978 17.8418 21.7794 17.5605 22.0607C17.2792 22.342 16.8977 22.5 16.4999 22.5ZM19.4999 27C19.2032 27 18.9132 26.912 18.6665 26.7472C18.4199 26.5824 18.2276 26.3481 18.1141 26.074C18.0005 25.7999 17.9708 25.4983 18.0287 25.2074C18.0866 24.9164 18.2294 24.6491 18.4392 24.4393C18.649 24.2296 18.9163 24.0867 19.2072 24.0288C19.4982 23.9709 19.7998 24.0006 20.0739 24.1142C20.348 24.2277 20.5823 24.42 20.7471 24.6666C20.9119 24.9133 20.9999 25.2033 20.9999 25.5C20.9999 25.8978 20.8418 26.2794 20.5605 26.5607C20.2792 26.842 19.8977 27 19.4999 27ZM26.9999 24C26.7032 24 26.4132 23.912 26.1665 23.7472C25.9199 23.5824 25.7276 23.3481 25.6141 23.074C25.5005 22.7999 25.4708 22.4983 25.5287 22.2074C25.5866 21.9164 25.7294 21.6491 25.9392 21.4393C26.149 21.2296 26.4163 21.0867 26.7072 21.0288C26.9982 20.9709 27.2998 21.0006 27.5739 21.1142C27.848 21.2277 28.0823 21.42 28.2471 21.6666C28.4119 21.9133 28.4999 22.2033 28.4999 22.5C28.4999 22.8978 28.3418 23.2794 28.0605 23.5607C27.7792 23.842 27.3977 24 26.9999 24ZM25.4999 28.5C25.2032 28.5 24.9132 28.412 24.6665 28.2472C24.4199 28.0824 24.2276 27.8481 24.1141 27.574C24.0005 27.2999 23.9708 26.9983 24.0287 26.7074C24.0866 26.4164 24.2294 26.1491 24.4392 25.9393C24.649 25.7296 24.9163 25.5867 25.2072 25.5288C25.4982 25.4709 25.7998 25.5006 26.0739 25.6142C26.348 25.7277 26.5823 25.92 26.7471 26.1666C26.9119 26.4133 26.9999 26.7033 26.9999 27C26.9999 27.3978 26.8418 27.7794 26.5605 28.0607C26.2792 28.342 25.8977 28.5 25.4999 28.5ZM22.4999 22.5C22.2032 22.5 21.9132 22.412 21.6665 22.2472C21.4199 22.0824 21.2276 21.8481 21.1141 21.574C21.0005 21.2999 20.9708 20.9983 21.0287 20.7074C21.0866 20.4164 21.2294 20.1491 21.4392 19.9393C21.649 19.7296 21.9163 19.5867 22.2072 19.5288C22.4982 19.4709 22.7998 19.5006 23.0739 19.6142C23.348 19.7277 23.5823 19.92 23.7471 20.1666C23.9119 20.4133 23.9999 20.7033 23.9999 21C23.9999 21.3978 23.8418 21.7794 23.5605 22.0607C23.2792 22.342 22.8977 22.5 22.4999 22.5Z"
        fill="black" />
</svg>