<svg width="45" height="45" viewBox="0 0 45 45" fill="none" xmlns="http://www.w3.org/2000/svg">
    <path
        d="M17.8169 34.3752C21.7754 34.3752 24.9844 31.2205 24.9844 27.329C24.9844 23.4374 21.7754 20.2827 17.8169 20.2827C13.8584 20.2827 10.6494 23.4374 10.6494 27.329C10.6494 31.2205 13.8584 34.3752 17.8169 34.3752Z"
        fill="#D0CFCE" />
    <path
        d="M17.8169 31.7559C20.179 31.7559 22.0938 29.8736 22.0938 27.5515C22.0938 25.2295 20.179 23.3472 17.8169 23.3472C15.4549 23.3472 13.54 25.2295 13.54 27.5515C13.54 29.8736 15.4549 31.7559 17.8169 31.7559Z"
        fill="#9B9B9A" />
    <path
        d="M17.8173 28.8599C18.6774 28.8599 19.3748 28.1743 19.3748 27.3286C19.3748 26.4829 18.6774 25.7974 17.8173 25.7974C16.9571 25.7974 16.2598 26.4829 16.2598 27.3286C16.2598 28.1743 16.9571 28.8599 17.8173 28.8599Z"
        fill="#D0CFCE" />
    <path
        d="M29.6518 34.375C30.9918 34.375 32.0781 33.3072 32.0781 31.99C32.0781 30.6728 30.9918 29.605 29.6518 29.605C28.3119 29.605 27.2256 30.6728 27.2256 31.99C27.2256 33.3072 28.3119 34.375 29.6518 34.375Z"
        fill="#D0CFCE" />
    <path
        d="M18.7145 20.3361L29.3739 20.2817L30.4801 27.3286H24.9851C24.9851 27.3286 24.5507 21.0624 18.7139 20.3361H18.7145Z"
        fill="#B6B6B6" />
    <path
        d="M15.8525 17.0003C15.8525 17.0003 28.4432 16.959 29.3575 17.0003C29.3963 17.7534 29.41 17.8859 29.41 18.4309C28.9194 18.4384 18.1063 18.5121 16.0925 18.5234C15.979 18.0215 15.8988 17.5127 15.8525 17.0003V17.0003Z"
        fill="black" stroke="black" stroke-width="1.63636" stroke-linecap="round" stroke-linejoin="round" />
    <path d="M7.70605 10.8506H14.4748L16.2117 20.2818" stroke="black" stroke-width="1.63636" stroke-linecap="round"
        stroke-linejoin="round" />
    <path
        d="M17.8169 34.3752C21.7754 34.3752 24.9844 31.2205 24.9844 27.329C24.9844 23.4374 21.7754 20.2827 17.8169 20.2827C13.8584 20.2827 10.6494 23.4374 10.6494 27.329C10.6494 31.2205 13.8584 34.3752 17.8169 34.3752Z"
        stroke="black" stroke-width="1.63636" stroke-linecap="round" stroke-linejoin="round" />
    <path
        d="M17.8169 31.7559C20.179 31.7559 22.0938 29.8736 22.0938 27.5515C22.0938 25.2295 20.179 23.3472 17.8169 23.3472C15.4549 23.3472 13.54 25.2295 13.54 27.5515C13.54 29.8736 15.4549 31.7559 17.8169 31.7559Z"
        stroke="black" stroke-width="1.63636" stroke-linecap="round" stroke-linejoin="round" />
    <path
        d="M17.8173 28.8599C18.6774 28.8599 19.3748 28.1743 19.3748 27.3286C19.3748 26.4829 18.6774 25.7974 17.8173 25.7974C16.9571 25.7974 16.2598 26.4829 16.2598 27.3286C16.2598 28.1743 16.9571 28.8599 17.8173 28.8599Z"
        stroke="black" stroke-width="1.63636" stroke-linecap="round" stroke-linejoin="round" />
    <path
        d="M29.6518 34.375C30.9918 34.375 32.0781 33.3072 32.0781 31.99C32.0781 30.6728 30.9918 29.605 29.6518 29.605C28.3119 29.605 27.2256 30.6728 27.2256 31.99C27.2256 33.3072 28.3119 34.375 29.6518 34.375Z"
        stroke="black" stroke-width="1.63636" stroke-linecap="round" stroke-linejoin="round" />
    <path
        d="M29.6561 32.7795C30.1155 32.7795 30.488 32.4135 30.488 31.962C30.488 31.5105 30.1155 31.1445 29.6561 31.1445C29.1967 31.1445 28.8242 31.5105 28.8242 31.962C28.8242 32.4135 29.1967 32.7795 29.6561 32.7795Z"
        fill="black" />
    <path
        d="M14.7703 24.6011L16.639 26.3274L14.7703 24.6011ZM20.6078 24.6011L18.9934 26.3274L20.6078 24.6011ZM18.8071 28.5099L20.8684 30.4942L18.8071 28.5099ZM16.639 28.5099L14.7646 30.4942L16.639 28.5099ZM18.7134 20.3361L29.3728 20.2817L30.479 27.3286H24.984C24.984 27.3286 24.5496 21.0624 18.7128 20.3361H18.7134Z"
        stroke="black" stroke-width="1.63636" stroke-linecap="round" stroke-linejoin="round" />
    <path
        d="M32.5306 28.2881H34.6644C34.915 28.2881 35.1181 28.4912 35.1181 28.7418V28.9793C35.1181 29.2293 34.915 29.4325 34.6644 29.4325H32.5312C32.4111 29.4325 32.2958 29.3847 32.2108 29.2997C32.1259 29.2148 32.0781 29.0995 32.0781 28.9793V28.7418C32.0781 28.4918 32.2806 28.2881 32.5312 28.2881H32.5306Z"
        fill="black" />
</svg>