<svg width="34" height="34" viewBox="0 0 34 34" fill="none" xmlns="http://www.w3.org/2000/svg">
    <path
        d="M15.5831 2.83325C18.335 2.83343 20.9929 3.83467 23.0611 5.6502C25.1292 7.46573 26.4663 9.97158 26.8229 12.7003L30.0104 17.7139C30.2201 18.044 30.1776 18.5356 29.6916 18.7453L26.9164 19.9324V24.0833C26.9164 24.8347 26.6179 25.5554 26.0865 26.0867C25.5552 26.6181 24.8345 26.9166 24.0831 26.9166H21.2511L21.2497 31.1666H8.49973V25.9334C8.49973 24.2618 7.88206 22.6793 6.73739 21.2513C5.40255 19.5847 4.56571 17.5748 4.32328 15.4533C4.08086 13.3317 4.44271 11.1849 5.36716 9.26005C6.2916 7.33521 7.74103 5.71069 9.54844 4.57365C11.3559 3.4366 13.4477 2.8333 15.5831 2.83325ZM15.5831 5.66659C13.9816 5.66652 12.4128 6.11885 11.0572 6.97147C9.7016 7.8241 8.61445 9.04232 7.92098 10.4858C7.22752 11.9293 6.95594 13.5393 7.13753 15.1304C7.31912 16.7215 7.9465 18.229 8.94739 19.4791C10.4972 21.4114 11.3331 23.6115 11.3331 25.9334V28.3333H18.4164L18.4192 24.0833H24.0831V18.0653L26.2789 17.1246L24.093 13.6892L24.0122 13.063C23.744 11.0172 22.741 9.13876 21.1901 7.77789C19.6392 6.41702 17.6464 5.66662 15.5831 5.66659ZM14.8322 10.9975L15.5831 11.7483L16.3339 10.9975C16.5625 10.7607 16.8361 10.5717 17.1385 10.4418C17.441 10.3118 17.7663 10.2433 18.0954 10.2404C18.4246 10.2375 18.7511 10.3001 19.0558 10.4247C19.3605 10.5493 19.6373 10.7333 19.8702 10.9661C20.103 11.1988 20.2871 11.4756 20.4118 11.7802C20.5366 12.0849 20.5993 12.4113 20.5966 12.7405C20.5938 13.0697 20.5254 13.395 20.3956 13.6975C20.2657 14 20.0769 14.2736 19.8401 14.5023L15.5831 18.7608L11.326 14.5023C11.0892 14.2736 10.9004 14 10.7706 13.6975C10.6407 13.395 10.5724 13.0697 10.5696 12.7405C10.5668 12.4113 10.6296 12.0849 10.7543 11.7802C10.879 11.4756 11.0631 11.1988 11.296 10.9661C11.5288 10.7333 11.8056 10.5493 12.1103 10.4247C12.415 10.3001 12.7415 10.2375 13.0707 10.2404C13.3999 10.2433 13.7252 10.3118 14.0276 10.4418C14.3301 10.5717 14.6036 10.7607 14.8322 10.9975Z"
        fill="black" />
</svg>