<svg width="36" height="36" viewBox="0 0 36 36" fill="none" xmlns="http://www.w3.org/2000/svg">
    <path
        d="M6.54893 10.9521C8.42206 8.79096 10.6057 7.87521 13.2719 7.87521C15.0056 7.87521 16.7146 7.97631 17.9981 8.35713C19.4807 7.87533 21.9396 7.6609 24.0382 7.97631C26.1368 8.29172 28.0535 9.34671 29.4427 10.951L29.4708 10.9825L29.4967 11.0162C30.8039 12.7712 31.9739 14.6882 33.1057 16.5445C33.5996 17.3522 34.0844 18.1487 34.5727 18.916L34.5761 18.9216C34.79 19.2495 34.8977 19.6355 34.8844 20.0268C34.8711 20.4182 34.7375 20.7959 34.5018 21.1086L34.3623 21.3876L34.3612 21.391C32.9977 24.1641 30.6768 26.8956 27.9464 28.9386C25.2228 30.9771 21.9806 32.4115 18.7619 32.4115H17.2432C14.0234 32.4115 10.7812 30.9737 8.05418 28.9352C5.32043 26.89 2.99168 24.1585 1.61131 21.3943L1.38631 20.9443C1.36843 20.9078 1.35192 20.8707 1.33681 20.833C1.18203 20.533 1.10945 20.1974 1.12645 19.8603C1.14344 19.5232 1.2494 19.1966 1.43356 18.9137L1.43918 18.9036C1.99943 18.0463 2.51806 17.1486 3.05806 16.2126C3.29768 15.7963 3.54181 15.3722 3.79606 14.9413C4.60381 13.5745 5.48693 12.1783 6.54893 10.9521ZM31.6837 21.5957L31.5149 21.5395L29.5169 22.147C18.7619 30.1615 17.2432 30.1615 6.45443 22.147L4.46093 21.5406L4.29781 21.5968C5.53756 23.6128 7.33193 25.585 9.40193 27.1318C11.8916 28.9948 14.6692 30.1615 17.2432 30.1615H18.7619C21.3359 30.1615 24.1136 28.9971 26.5987 27.1375C28.6664 25.5895 30.4563 23.6162 31.6837 21.5957ZM31.5532 19.1758L31.9964 19.0408C31.6994 18.5616 31.4092 18.0846 31.1189 17.6098C30.0221 15.811 28.9511 14.0548 27.7181 12.3966C26.6069 11.1272 25.0548 10.3276 23.3762 10.1598C21.6975 9.99211 19.4524 10.1252 18.6776 10.6195L17.9969 10.9521L17.3118 10.6161C16.5354 10.1252 14.7322 10.1219 13.2719 10.1252C11.2357 10.1252 9.67981 10.7743 8.24993 12.4258C7.32518 13.4923 6.52531 14.7445 5.73443 16.0855C5.50493 16.4736 5.27543 16.873 5.04143 17.2768C4.70168 17.8652 4.35631 18.4637 4.00306 19.0487L4.42381 19.1781L9.37831 17.4973C17.2432 12.8575 19.286 12.4258 26.6043 17.4973L31.5532 19.1758ZM7.71456 20.5718C9.61582 21.0533 12.8596 25.0718 18.0003 25.0718C22.5025 25.0718 27.0299 21.0533 28.9289 20.5718C20.8367 14.6004 14.3746 14.6015 7.71456 20.5718Z"
        fill="black" />
</svg>