<svg width="34" height="34" viewBox="0 0 34 34" fill="none" xmlns="http://www.w3.org/2000/svg">
    <path
        d="M13.4835 31.1668C12.7894 28.9032 11.7423 27.2158 10.3421 26.1044C8.24184 24.4373 4.90476 25.4734 3.67209 23.754C2.43941 22.0344 4.53572 18.8723 5.27133 17.0064C6.00695 15.1407 2.45178 14.4809 2.86684 13.9513C3.14356 13.5982 4.9401 12.5791 8.25651 10.8943C9.1988 5.52043 12.6794 2.8335 18.6984 2.8335C27.7267 2.8335 31.1663 10.4877 31.1663 15.356C31.1663 20.2244 27.0014 25.4691 21.0684 26.6C20.5379 27.3726 21.3031 28.8949 23.3639 31.1668"
        stroke="black" stroke-width="3" stroke-linecap="round" stroke-linejoin="round" />
    <path fill-rule="evenodd" clip-rule="evenodd"
        d="M13.8124 10.2709C13.3496 12.0661 13.4873 13.3265 14.2255 14.0524C14.9636 14.7783 16.2217 15.2529 17.9997 15.4764C17.5963 17.7917 18.0882 18.878 19.4752 18.735C20.8622 18.5921 21.6956 18.0158 21.9754 17.006C24.1431 17.6152 25.3179 17.1054 25.4999 15.4764C25.773 13.0329 24.4553 11.0837 23.9151 11.0837C23.3749 11.0837 21.9754 11.018 21.9754 10.2709C21.9754 9.52379 20.3405 9.10169 18.8651 9.10169C17.3896 9.10169 18.2776 8.10712 16.2515 8.5001C14.9008 8.76204 14.0878 9.3523 13.8124 10.2709Z"
        fill="#7A7A7A" stroke="black" stroke-width="2" stroke-linejoin="round" />
    <path
        d="M21.6043 18.0625C20.884 18.5095 19.8955 19.2527 19.4793 19.8333C18.4388 21.2851 17.5948 22.169 17.4102 23.0974"
        stroke="black" stroke-width="2" stroke-linecap="round" />
</svg>