<svg width="36" height="36" viewBox="0 0 36 36" fill="none" xmlns="http://www.w3.org/2000/svg">
    <path
        d="M18.4576 20.2546C18.2977 20.1674 18.1214 20.1145 17.9399 20.0993C17.7584 20.0842 17.5757 20.1071 17.4036 20.1666L17.4041 20.1656C16.5361 20.2756 16.3341 18.8491 15.8841 18.3411C15.7133 18.1525 15.4999 18.0073 15.2617 17.9178C15.0235 17.8282 14.7674 17.7968 14.5146 17.8261C13.5551 17.9696 13.1761 19.1591 13.1256 19.3171C12.9757 19.8036 12.974 20.3236 13.1206 20.8111C13.2556 21.2711 13.2266 21.7626 13.0391 22.2036C11.959 24.5903 10.3222 26.6832 8.26609 28.3066C7.65745 28.28 7.05573 28.4443 6.54509 28.7766C6.21159 28.9956 5.56259 29.4226 5.53809 30.1316C5.5463 30.349 5.6006 30.5621 5.6974 30.7569C5.7942 30.9517 5.93129 31.1238 6.09959 31.2616C6.25997 31.349 6.43683 31.4019 6.61885 31.417C6.80086 31.432 6.98402 31.4089 7.15659 31.3491L7.15309 31.3506C8.02109 31.2406 8.22309 32.6671 8.67309 33.1751C8.84398 33.3638 9.05745 33.5089 9.29573 33.5985C9.53401 33.6881 9.79023 33.7195 10.0431 33.6901C11.0021 33.5466 11.3816 32.3571 11.4316 32.1991C11.5815 31.7126 11.5832 31.1925 11.4366 30.7051C11.3378 30.3922 11.3387 30.0564 11.4391 29.7441L11.5446 29.7051L14.0141 25.6926L14.1101 25.5356C14.7498 24.6856 15.4734 23.9021 16.2701 23.1971C16.8843 23.2301 17.4934 23.0701 18.0121 22.7396C18.3456 22.5201 18.9951 22.0931 19.0191 21.3846C19.0108 21.1672 18.9565 20.9541 18.8597 20.7593C18.7629 20.5645 18.6259 20.3924 18.4576 20.2546Z"
        fill="#070707" />
    <path d="M15.8037 16.854L16.7332 17.2825L17.9332 18.8045L18.4557 19.097L19.3687 19.2825" stroke="#FFA7C0"
        stroke-width="3" stroke-miterlimit="10" stroke-linecap="round" />
    <path
        d="M8.40085 32.5086C8.13085 32.9371 9.02535 34.3886 10.8438 33.3171C11.2468 33.0801 11.3723 32.1846 11.6398 31.6501C11.7773 31.3751 11.2568 30.0776 11.3993 29.7831C12.6182 27.3357 14.2683 25.128 16.2703 23.2661C16.8845 23.2991 17.4937 23.1391 18.0123 22.8086C18.3458 22.5896 18.9953 22.1626 19.0193 21.4541C19.0111 21.2367 18.9568 21.0236 18.86 20.8288C18.7632 20.6339 18.6261 20.4619 18.4578 20.3241C17.8653 19.7906 17.3528 20.0396 17.3058 20.1261C17.3058 20.1261 17.6283 20.7496 16.7743 21.6376C14.7493 23.7441 11.3553 28.1271 9.71085 31.4796C8.96285 33.0046 8.40085 32.5086 8.40085 32.5086Z"
        fill="#D0CFCE" />
    <path
        d="M27.4273 5.20875C27.2674 5.12154 27.0911 5.06867 26.9096 5.05351C26.7281 5.03836 26.5454 5.06126 26.3733 5.12075L26.3738 5.11975C25.5058 5.22925 25.3038 3.80275 24.8538 3.29475C24.6829 3.10605 24.4695 2.96088 24.2312 2.8713C23.9929 2.78173 23.7367 2.75034 23.4838 2.77975C22.5248 2.92325 22.1458 4.11325 22.0953 4.27075C21.9454 4.75722 21.9437 5.27729 22.0903 5.76475C22.2253 6.22475 22.1958 6.71675 22.0088 7.15725C20.9288 9.54415 19.292 11.6372 17.2358 13.2608C16.6272 13.2342 16.0255 13.3985 15.5148 13.7308C15.1813 13.9498 14.5323 14.3768 14.5078 15.0858C14.516 15.3031 14.5703 15.5163 14.6671 15.7111C14.7639 15.9059 14.901 16.0779 15.0693 16.2158C15.2297 16.3031 15.4066 16.3561 15.5886 16.3711C15.7706 16.3862 15.9537 16.3631 16.1263 16.3033L16.1228 16.3048C16.9908 16.1948 17.1928 17.6213 17.6428 18.1293C17.8137 18.318 18.0271 18.4631 18.2654 18.5527C18.5037 18.6423 18.7599 18.6737 19.0128 18.6443C19.9718 18.5008 20.3513 17.3113 20.4013 17.1533C20.5512 16.6668 20.5529 16.1467 20.4063 15.6593C20.3075 15.3464 20.3084 15.0106 20.4088 14.6983L20.5148 14.6593L22.9838 10.6468L23.0798 10.4898C23.7195 9.63975 24.4432 8.85631 25.2398 8.15125C25.854 8.18427 26.4631 8.0243 26.9818 7.69375C27.3153 7.47425 27.9648 7.04725 27.9888 6.33875C27.9806 6.12138 27.9263 5.90824 27.8295 5.71343C27.7327 5.51863 27.5956 5.3466 27.4273 5.20875Z"
        fill="#070707" />
    <path
        d="M17.9809 17.1927C17.7109 17.6212 18.6054 19.0727 20.4239 18.0012C20.8274 17.7637 20.9524 16.8687 21.2199 16.3342C21.3574 16.0592 20.8369 14.7617 20.9799 14.4672C22.1986 12.0198 23.8485 9.81218 25.8504 7.95015C26.4646 7.98321 27.0737 7.82324 27.5924 7.49265C27.9259 7.27365 28.5754 6.84666 28.5994 6.13816C28.5912 5.92078 28.5369 5.70764 28.4401 5.51283C28.3433 5.31803 28.2062 5.14601 28.0379 5.00815C27.4459 4.47465 26.9329 4.72366 26.8864 4.81016C26.8864 4.81016 27.2084 5.43365 26.3544 6.32165C24.3294 8.42815 20.9354 12.8107 19.2909 16.1637C18.5429 17.6887 17.9809 17.1927 17.9809 17.1927Z"
        fill="#D0CFCE" />
    <path
        d="M25.1134 5.04118C25.4269 5.58968 27.4464 4.47468 28.0389 5.00818C28.2072 5.14609 28.3443 5.31819 28.4411 5.51309C28.5379 5.70799 28.5922 5.92123 28.6004 6.13868C28.5759 6.84718 27.9269 7.27368 27.5934 7.49368C27.0746 7.82406 26.4655 7.98386 25.8514 7.95068C23.7719 9.72218 21.8524 12.8937 21.1264 14.2107C20.9309 14.5974 20.8919 15.0445 21.0174 15.4592C21.1642 15.9466 21.1626 16.4667 21.0129 16.9532C20.9629 17.1112 20.5829 18.3007 19.6239 18.4442C19.3711 18.4735 19.115 18.4421 18.8768 18.3525C18.6386 18.2629 18.4252 18.1178 18.2544 17.9292C17.8044 17.4207 17.6024 15.9947 16.7344 16.1042"
        stroke="#070707" stroke-linecap="round" stroke-linejoin="round" />
    <path
        d="M18.6057 15.9824C18.2922 15.4339 16.2727 16.5489 15.6807 16.0154C15.5123 15.8776 15.3751 15.7056 15.2783 15.5108C15.1814 15.316 15.127 15.1028 15.1187 14.8854C15.1432 14.1764 15.7922 13.7499 16.1257 13.5304C16.6363 13.1981 17.238 13.0338 17.8467 13.0604C19.9028 11.437 21.5395 9.34413 22.6197 6.95742C22.807 6.51664 22.8359 6.02463 22.7017 5.56492C22.5551 5.07745 22.5568 4.55739 22.7067 4.07092C22.7567 3.91292 23.1362 2.72342 24.0952 2.57992C24.348 2.55069 24.6041 2.58222 24.8423 2.67188C25.0805 2.76153 25.2939 2.90674 25.4647 3.09542C25.9147 3.60342 26.1172 5.02942 26.9847 4.92042M16.1427 20.0874C16.4562 20.6359 18.4757 19.5209 19.0682 20.0544C19.2365 20.1923 19.3736 20.3644 19.4704 20.5593C19.5672 20.7542 19.6215 20.9675 19.6297 21.1849C19.6052 21.8934 18.9562 22.3199 18.6227 22.5399C18.1039 22.8703 17.4948 23.0301 16.8807 22.9969C14.8012 24.7684 12.8817 27.9399 12.1557 29.2569C11.9602 29.6436 11.9212 30.0907 12.0467 30.5054C12.1935 30.9928 12.1919 31.5129 12.0422 31.9994C11.9922 32.1574 11.6122 33.3469 10.6532 33.4904C10.4004 33.5197 10.1443 33.4883 9.90606 33.3987C9.66787 33.3092 9.45449 33.164 9.28367 32.9754C8.83367 32.4674 8.63167 31.0409 7.76367 31.1504"
        stroke="#070707" stroke-linecap="round" stroke-linejoin="round" />
    <path
        d="M9.63641 31.0285C9.32291 30.48 7.30341 31.595 6.71141 31.0615C6.54307 30.9236 6.40593 30.7516 6.30904 30.5568C6.21216 30.362 6.15775 30.1489 6.14941 29.9315C6.17391 29.2225 6.82291 28.796 7.15641 28.5765C7.66706 28.2442 8.26878 28.0799 8.87741 28.1065C10.9334 26.4828 12.57 24.3898 13.6499 22.003C13.8371 21.5623 13.8661 21.0705 13.7319 20.611C13.5853 20.1235 13.587 19.6034 13.7369 19.117C13.7869 18.959 14.1669 17.7695 15.1259 17.626C15.3787 17.5966 15.6348 17.6281 15.873 17.7176C16.1112 17.8072 16.3246 17.9523 16.4954 18.141C16.9454 18.649 17.1479 20.0755 18.0154 19.966M14.0029 13.3295L12.5309 11.6295L13.9164 11.116L12.0669 8.98047M12.2609 17.5335L10.0139 17.623L10.5874 18.985L7.76441 19.0975M12.8309 15.277L10.9034 14.119L10.6354 15.572L8.21391 14.117"
        stroke="#070707" stroke-linecap="round" stroke-linejoin="round" />
    <path
        d="M14.0022 13.329L12.5302 11.629L13.9157 11.1155L12.0662 8.97998M12.2602 17.533L10.0132 17.6225L10.5867 18.9845L7.76367 19.097M12.8302 15.2765L10.9027 14.1185L10.6347 15.5715L8.21317 14.1165"
        stroke="#D22F27" stroke-linecap="round" stroke-linejoin="round" />
</svg>