<svg width="34" height="34" viewBox="0 0 34 34" fill="none" xmlns="http://www.w3.org/2000/svg">
    <path fill-rule="evenodd" clip-rule="evenodd"
        d="M22.667 21.8398C22.667 21.2763 22.8909 20.7358 23.2894 20.3372C23.6879 19.9387 24.2284 19.7148 24.792 19.7148C25.3556 19.7148 25.8961 19.9387 26.2946 20.3372C26.6931 20.7358 26.917 21.2763 26.917 21.8398V30.4581C26.917 30.646 26.8424 30.8262 26.7095 30.959C26.5767 31.0918 26.3965 31.1665 26.2087 31.1665C26.0208 31.1665 25.8406 31.0918 25.7078 30.959C25.575 30.8262 25.5003 30.646 25.5003 30.4581V21.8398C25.5003 21.652 25.4257 21.4718 25.2929 21.339C25.16 21.2061 24.9799 21.1315 24.792 21.1315C24.6041 21.1315 24.424 21.2061 24.2911 21.339C24.1583 21.4718 24.0837 21.652 24.0837 21.8398V21.9978C24.0837 22.1857 24.009 22.3658 23.8762 22.4987C23.7434 22.6315 23.5632 22.7061 23.3753 22.7061C23.1875 22.7061 23.0073 22.6315 22.8745 22.4987C22.7416 22.3658 22.667 22.1857 22.667 21.9978V21.8398Z"
        fill="black" />
    <path fill-rule="evenodd" clip-rule="evenodd"
        d="M20.8767 9.91634C18.7446 9.91634 17.216 11.1786 16.2463 12.9027C15.2929 14.597 14.875 16.7362 14.875 18.6161C14.875 19.1551 15.0535 19.714 15.2554 20.1907C15.465 20.6851 15.737 21.1767 15.9991 21.6045C16.0593 21.7037 16.1195 21.7993 16.1798 21.8921C16.2529 22.0063 16.2917 22.139 16.2917 22.2746V29.1355C16.2917 29.4295 16.5623 29.7497 17 29.7497C17.4378 29.7497 17.7083 29.4295 17.7083 29.1355V22.6253C17.7083 20.5215 18.3983 18.4128 18.977 16.642L18.9933 16.5931C19.096 16.28 19.1944 15.9768 19.2872 15.6836C19.436 15.2147 19.5904 14.7705 19.7476 14.3555C19.8013 14.2132 19.8993 14.092 20.0272 14.0097C20.1551 13.9275 20.306 13.8886 20.4577 13.8987C20.6094 13.9089 20.7538 13.9676 20.8696 14.0662C20.9854 14.1648 21.0663 14.298 21.1005 14.4461L21.6077 16.6264C21.6608 16.8545 21.7968 17.023 21.9548 17.1095L25.2301 17.8412C25.2739 17.851 25.3166 17.865 25.3576 17.883C25.6339 18.0027 26.0058 17.883 26.1559 17.4757C26.3033 17.074 26.1276 16.6675 25.8513 16.5053L23.2305 16.0491C23.0936 16.0252 22.9667 15.9616 22.8657 15.8661C22.7647 15.7706 22.694 15.6475 22.6624 15.5122L21.488 10.4688C21.403 10.1055 21.1253 9.91634 20.8767 9.91634V9.91634ZM15.0117 12.2085C16.1458 10.1912 18.0788 8.49967 20.8767 8.49967C21.8578 8.49967 22.6511 9.21722 22.8678 10.148L23.936 14.7344L26.1942 15.1275C26.2496 15.1369 26.3036 15.1531 26.355 15.1757C27.421 15.6383 27.8772 16.8998 27.4848 17.9651C27.093 19.0305 25.9434 19.6347 24.8625 19.2104L21.5659 18.4737C21.5222 18.4641 21.4795 18.4503 21.4384 18.4326C21.171 18.3135 20.9311 18.1403 20.7341 17.9237C20.5371 17.7072 20.3871 17.4521 20.2938 17.1746C19.7115 18.9554 19.125 20.8155 19.125 22.6253V29.1355C19.125 30.3022 18.1263 31.1663 17 31.1663C15.8738 31.1663 14.875 30.3022 14.875 29.1355V22.48C14.5217 21.9264 14.2128 21.3457 13.9513 20.7432C13.7225 20.2049 13.4583 19.4378 13.4583 18.6161C13.4583 16.5591 13.911 14.1656 15.0117 12.2085V12.2085ZM7.16621 7.13613C7.25446 6.9704 7.40491 6.84649 7.58449 6.79163C7.76407 6.73677 7.95808 6.75546 8.12388 6.84359L12.075 8.9438C12.1933 9.00676 12.2913 9.10199 12.3577 9.21844C12.424 9.33489 12.456 9.46777 12.4498 9.60166C12.4437 9.73554 12.3996 9.86494 12.3229 9.9748C12.2461 10.0847 12.1398 10.1705 12.0162 10.2223L10.8049 10.7295L13.0192 11.9514C13.1808 12.0436 13.2996 12.1958 13.3499 12.3749C13.4003 12.554 13.3781 12.7458 13.2883 12.9087C13.1984 13.0717 13.048 13.1927 12.8696 13.2456C12.6912 13.2986 12.4991 13.2792 12.3349 13.1917L8.83788 11.2622C8.7213 11.1978 8.62521 11.102 8.56063 10.9855C8.49606 10.8691 8.46561 10.7368 8.47278 10.6038C8.47996 10.4709 8.52446 10.3426 8.60119 10.2338C8.67792 10.125 8.78376 10.04 8.90659 9.98859L10.0895 9.49276L7.45946 8.09451C7.37724 8.05087 7.30443 7.99146 7.24519 7.91966C7.18595 7.84787 7.14144 7.7651 7.11421 7.6761C7.08697 7.58709 7.07755 7.49359 7.08647 7.40094C7.0954 7.30829 7.12249 7.21831 7.16621 7.13613V7.13613ZM6.96434 14.1508C7.04225 13.7541 7.40563 13.4941 7.77538 13.5706L10.3721 14.109C10.4972 14.1369 10.6119 14.1992 10.7033 14.289C10.7947 14.3788 10.8591 14.4923 10.8892 14.6168C10.9572 14.8775 10.8843 15.1601 10.6987 15.3507L10.1341 15.9315L11.5069 16.2885C11.8717 16.3834 12.0905 16.7787 11.9949 17.1718C11.8993 17.5649 11.5253 17.8065 11.1598 17.7115L8.59209 17.0429C8.47136 17.0092 8.3621 16.9432 8.276 16.8521C8.1899 16.761 8.13021 16.6482 8.10334 16.5258C8.04171 16.2687 8.11609 15.9945 8.29671 15.8083L8.80954 15.2813L7.49063 15.0085C7.12159 14.932 6.88571 14.5481 6.96434 14.1515V14.1508ZM23.375 7.08301C23.7507 7.08301 24.1111 6.93375 24.3767 6.66808C24.6424 6.4024 24.7917 6.04206 24.7917 5.66634C24.7917 5.29062 24.6424 4.93028 24.3767 4.66461C24.1111 4.39893 23.7507 4.24967 23.375 4.24967C22.9993 4.24967 22.6389 4.39893 22.3733 4.66461C22.1076 4.93028 21.9583 5.29062 21.9583 5.66634C21.9583 6.04206 22.1076 6.4024 22.3733 6.66808C22.6389 6.93375 22.9993 7.08301 23.375 7.08301ZM23.375 8.49967C24.1264 8.49967 24.8471 8.20116 25.3785 7.66981C25.9098 7.13846 26.2083 6.41779 26.2083 5.66634C26.2083 4.91489 25.9098 4.19422 25.3785 3.66287C24.8471 3.13152 24.1264 2.83301 23.375 2.83301C22.6236 2.83301 21.9029 3.13152 21.3715 3.66287C20.8402 4.19422 20.5417 4.91489 20.5417 5.66634C20.5417 6.41779 20.8402 7.13846 21.3715 7.66981C21.9029 8.20116 22.6236 8.49967 23.375 8.49967Z"
        fill="black" />
</svg>