<svg width="40" height="32" viewBox="0 0 40 32" fill="none" xmlns="http://www.w3.org/2000/svg">
    <path
        d="M20.4815 20.9995C20.321 20.9995 20 21.4745 20 23.3745C20 25.2745 20 26.0828 20 26.2495C20.642 26.8328 22.7926 27.9995 26.2593 27.9995C29.7259 27.9995 32.1975 26.8328 33 26.2495V21.8745C33 21.6662 32.8796 21.1995 32.3981 20.9995"
        stroke="black" stroke-width="0.6" />
    <path
        d="M33 22C32.7975 22.6202 31.615 23.8838 28.5047 23.9768C25.3944 24.0698 23.3209 23.8605 22.6729 23.7443C22.1059 23.6667 20.7776 23.3256 20 22.5814"
        stroke="black" stroke-width="0.6" />
    <path d="M24 19.4783C25.0188 19.4348 27.1299 18.8783 27.4233 17C29.0127 17 30.113 18.0435 29.9907 20" stroke="black"
        stroke-width="0.6" />
    <path
        d="M30.0691 18.3245C31.0121 18.3926 32.6624 18.7945 31.7194 19.857C30.5406 21.1852 26.0612 21.0831 23.9394 20.8787C21.8176 20.6744 20.2852 19.857 21.3461 18.9375C22.4777 18.0384 24.6467 17.9499 25.5897 18.018"
        stroke="black" stroke-width="0.6" />
    <path
        d="M21.001 19.1498V21.3969C21.8413 22.096 24.3239 23.3744 27.5322 22.895C30.7406 22.4156 31.8482 21.4968 32.001 21.0973L31.8864 19"
        stroke="black" stroke-width="0.6" />
    <path
        d="M29.4796 17.0672C29.051 16.2113 28.5849 14.5884 29.6541 14.1286M34.1369 22.8182C34.7497 23.3077 36.4655 24.2865 37.2008 23.9195C37.4236 23.8083 37.5677 23.5511 37.6295 23.1853M37.6295 23.1853C37.772 22.3437 37.4795 20.9273 36.7106 19.3921C35.6076 17.1896 32.421 13.8859 30.2149 14.0082C29.9932 14.0205 29.8078 14.0626 29.6541 14.1286M37.6295 23.1853C38.222 23.1445 39.3088 22.5735 38.9167 20.6157C38.4264 18.1685 35.7302 14.9871 34.1369 14.0082C32.5436 13.0294 30.6865 12.2913 29.6541 14.1286"
        stroke="black" stroke-width="0.6" />
    <path d="M9 17C9.53333 17.7546 11.08 18.8111 13 17" stroke="black" stroke-width="0.6" />
    <path d="M20 17C19.4667 17.7546 17.92 18.8111 16 17" stroke="black" stroke-width="0.6" />
    <path
        d="M13.1121 20.7205L13.4454 20.0005M15.1121 20.7205L14.7788 20.0005M11.3343 24.2005H11.001C11.3713 24.8005 12.5343 26.0005 14.2232 26.0005C15.9121 26.0005 16.7788 24.8005 17.001 24.2005H16.7788M11.3343 24.2005C11.6676 23.6805 12.4899 22.6405 13.1121 22.6405C13.7343 22.6405 14.038 23.0405 14.1121 23.2405C14.2602 23.0405 14.6676 22.6405 15.1121 22.6405C15.6676 22.6405 16.6676 23.6005 16.7788 24.2005M11.3343 24.2005H16.7788"
        stroke="black" stroke-width="0.6" />
    <path
        d="M23.7559 15.3919C24.3678 11.9981 24.2148 4.57111 18.7079 2.0139C11.8244 -1.18261 5.62919 3.67136 4.94084 9.70921C4.39015 14.5395 5.32326 17.0888 5.85864 17.7597C5.32323 17.1678 4.20652 16.4101 4.02296 18.1149C3.79351 20.2459 5.39967 22.6137 7.00583 22.8505C6.89108 22.2585 6.69987 21.4693 6.66163 21.0746C6.92932 23.0872 8.40546 27.3966 12.1685 28.5332C15.1972 29.4803 16.9487 28.7699 17.4459 28.2964M5.85864 15.3919C5.89685 14.5237 6.40923 12.3848 8.15307 10.7748C10.3329 8.76213 13.2009 8.40696 15.9544 7.34146C17.7901 6.63112 18.7079 5.17099 18.7079 4.61851M15.4955 8.99891C17.5988 9.1173 21.9661 10.4906 22.6085 15.0368M15.9544 14.3264C16.681 14.0107 18.3407 13.4267 19.1668 13.6161C19.9928 13.8055 20.5817 14.4843 20.7729 14.8"
        stroke="black" />
    <path
        d="M12.999 14.6126C12.2451 14.354 10.5228 13.8756 9.66569 14.0308C8.80855 14.1859 8.19744 14.7419 7.99902 15.0005"
        stroke="black" stroke-width="0.6" />
    <circle cx="28.499" cy="10.4995" r="0.3" stroke="black" stroke-width="0.4" />
    <circle cx="20.5" cy="31.5005" r="0.3" stroke="black" stroke-width="0.4" />
    <path
        d="M4.63889 29C4.68519 28.3514 4.22222 27.0541 2 27.0541C4.08333 27.0541 4.63889 25.973 4.63889 25C4.63889 26.1892 5.33333 27.0541 7 27.0541C5.66667 27.0541 5.24074 27.4144 5.19444 27.5946"
        stroke="black" stroke-width="0.6" />
    <path
        d="M1.58333 13.9995C1.61111 13.3509 1.33333 12.0536 0 12.0536C1.25 12.0536 1.58333 10.9725 1.58333 9.99951C1.58333 11.1887 2 12.0536 3 12.0536C2.2 12.0536 1.94444 12.4139 1.91667 12.5941"
        stroke="black" stroke-width="0.6" />
</svg>