<svg width="40" height="40" viewBox="0 0 40 40" fill="none" xmlns="http://www.w3.org/2000/svg">
    <path
        d="M9.46333 30.205C5.15333 27.61 2.5 23.52 2.5 19.0083C2.5 11.1683 10.4133 5 20 5C29.5867 5 37.5 11.1683 37.5 19.0083C37.5 26.8483 29.5867 33.0167 20 33.0167C19.2633 33.0167 18.53 32.98 17.8033 32.9083L11.5283 37.005C10.5033 37.5483 9.93333 37.7133 9.05333 37.115C8.02 36.4083 8.06 35.6283 8.41833 34.515L9.46333 30.205ZM5.83333 19.0083C5.83333 22.5617 8.19667 25.88 12.135 27.875L13.3117 28.4733L13.0017 29.7567L12.3333 32.5033L17 29.4533L17.61 29.53C18.3983 29.6317 19.1967 29.6833 20 29.6833C27.9017 29.6833 34.1667 24.8 34.1667 19.0083C34.1667 13.2167 27.9017 8.33333 20 8.33333C12.0983 8.33333 5.83333 13.2167 5.83333 19.0083ZM29.845 18.4317L32.3683 22.0233C32.4278 22.1079 32.4699 22.2034 32.4925 22.3043C32.515 22.4052 32.5174 22.5095 32.4996 22.6114C32.4818 22.7132 32.4441 22.8105 32.3887 22.8978C32.3333 22.9851 32.2613 23.0606 32.1767 23.12C32.0921 23.1794 31.9966 23.2216 31.8957 23.2441C31.7948 23.2667 31.6905 23.2691 31.5886 23.2513C31.4868 23.2335 31.3895 23.1958 31.3022 23.1404C31.2149 23.085 31.1394 23.0129 31.08 22.9283L28.7 19.54L27.9883 20.2283V22.5C27.9883 22.7086 27.9055 22.9087 27.7579 23.0563C27.6104 23.2038 27.4103 23.2867 27.2017 23.2867C26.993 23.2867 26.7929 23.2038 26.6454 23.0563C26.4979 22.9087 26.415 22.7086 26.415 22.5V20.1017C26.3855 19.9801 26.3855 19.8532 26.415 19.7317V15.47C26.415 15.2614 26.4979 15.0613 26.6454 14.9137C26.7929 14.7662 26.993 14.6833 27.2017 14.6833C27.4103 14.6833 27.6104 14.7662 27.7579 14.9137C27.9055 15.0613 27.9883 15.2614 27.9883 15.47V18.04L31.2017 14.93C31.3531 14.7935 31.5515 14.7212 31.7552 14.7282C31.9589 14.7351 32.152 14.8209 32.2937 14.9673C32.4354 15.1138 32.5147 15.3096 32.515 15.5134C32.5152 15.7172 32.4364 15.9132 32.295 16.06L29.845 18.4317ZM24.915 21.64C25.1236 21.64 25.3237 21.7229 25.4713 21.8704C25.6188 22.0179 25.7017 22.218 25.7017 22.4267C25.7017 22.6353 25.6188 22.8354 25.4713 22.9829C25.3237 23.1305 25.1236 23.2133 24.915 23.2133H21.695C21.4867 23.2129 21.287 23.1298 21.1398 22.9823C20.9927 22.8349 20.91 22.635 20.91 22.4267V15.495C20.9051 15.3888 20.9218 15.2826 20.9591 15.183C20.9964 15.0834 21.0535 14.9924 21.1269 14.9155C21.2004 14.8386 21.2887 14.7774 21.3864 14.7355C21.4842 14.6937 21.5895 14.6721 21.6958 14.6721C21.8022 14.6721 21.9074 14.6937 22.0052 14.7355C22.103 14.7774 22.1913 14.8386 22.2647 14.9155C22.3382 14.9924 22.3953 15.0834 22.4326 15.183C22.4699 15.2826 22.4866 15.3888 22.4817 15.495V21.64H24.915ZM15.1533 19.82H17.3767L16.3133 16.975L15.1533 19.82ZM19.3583 20.6333L19.9333 22.175C19.973 22.2725 19.9928 22.377 19.9914 22.4822C19.99 22.5875 19.9675 22.6914 19.9252 22.7878C19.8829 22.8842 19.8218 22.9711 19.7453 23.0434C19.6688 23.1157 19.5785 23.172 19.4799 23.2088C19.3813 23.2456 19.2763 23.2623 19.1711 23.2577C19.066 23.2532 18.9628 23.2277 18.8677 23.1826C18.7726 23.1374 18.6875 23.0737 18.6174 22.9951C18.5474 22.9165 18.4939 22.8247 18.46 22.725L17.9633 21.3933H14.5133L13.9617 22.7483C13.9226 22.844 13.8651 22.931 13.7924 23.0044C13.7197 23.0778 13.6332 23.1362 13.538 23.1762C13.4427 23.2162 13.3405 23.2371 13.2372 23.2376C13.1339 23.2381 13.0315 23.2182 12.9358 23.1792C12.8402 23.1401 12.7532 23.0826 12.6798 23.0099C12.6063 22.9372 12.548 22.8507 12.508 22.7555C12.468 22.6602 12.4471 22.558 12.4466 22.4547C12.4461 22.3514 12.4659 22.249 12.505 22.1533L15.2717 15.3617C15.3561 15.1414 15.5056 14.9521 15.7003 14.819C15.8951 14.6859 16.1258 14.6153 16.3617 14.6167C16.5956 14.6263 16.8209 14.7072 17.0076 14.8483C17.1944 14.9895 17.3336 15.1843 17.4067 15.4067L19.15 20.0733C19.2856 20.2178 19.3613 20.4085 19.3617 20.6067L19.3583 20.6333ZM13.8217 15.5033C13.8217 15.9367 13.4717 16.29 13.0367 16.29H11.1367V22.5167C11.1367 22.7255 11.0537 22.9258 10.906 23.0735C10.7583 23.2212 10.558 23.3042 10.3492 23.3042C10.1403 23.3042 9.94 23.2212 9.79232 23.0735C9.64463 22.9258 9.56167 22.7255 9.56167 22.5167V16.29H7.62833C7.4197 16.29 7.2196 16.2071 7.07208 16.0596C6.92455 15.9121 6.84167 15.712 6.84167 15.5033C6.84167 15.2947 6.92455 15.0946 7.07208 14.9471C7.2196 14.7995 7.4197 14.7167 7.62833 14.7167H13.0367C13.47 14.7167 13.8217 15.0683 13.8217 15.5033Z"
        fill="black" />
</svg>