<svg width="34" height="34" viewBox="0 0 34 34" fill="none" xmlns="http://www.w3.org/2000/svg">
    <path d="M30.9189 19.0186C30.9189 23.2686 27.4658 26.7217 23.2158 26.7217V19.0186H30.9189Z" fill="#585858" />
    <path
        d="M31.5031 1.75293H26.2969C25.8719 1.75293 25.5 2.1248 25.5 2.44355V18.3279C25.5 18.6467 25.8719 19.1779 26.2969 19.1779H31.5031C31.9281 19.1779 32.3 18.6467 32.3 18.3279V2.44355C32.3 2.17793 31.9281 1.75293 31.5031 1.75293Z"
        fill="#898989" />
    <path
        d="M32.0344 0H25.7656C25.2344 0 24.8094 0.478125 24.8094 0.85V1.85938C24.8094 2.23125 25.2344 2.86875 25.7656 2.86875H32.0875C32.6188 2.86875 33.0438 2.17812 33.0438 1.85938V0.85C33.0438 0.478125 32.5656 0 32.0344 0ZM23.375 27.625C23.375 26.2969 23.6938 25.075 24.3312 23.9594H5.57812C6.1625 25.0219 6.53438 26.2969 6.53438 27.625C6.53438 30.1219 5.3125 31.8219 3.45312 33.2031H26.5094C24.5438 31.8219 23.375 30.1219 23.375 27.625Z"
        fill="#414042" />
    <path
        d="M27.0939 33.2029C27.0939 33.6279 26.7221 33.9998 26.2971 33.9998H3.6127C3.1877 33.9998 2.81582 33.6279 2.81582 33.2029C2.81582 32.7779 3.1877 32.4061 3.6127 32.4061H26.2971C26.7221 32.4061 27.0939 32.7779 27.0939 33.2029ZM14.9283 28.5811C21.6221 28.5811 27.0939 24.3311 27.0939 19.0186H2.7627C2.7627 24.3311 8.23457 28.5811 14.9283 28.5811Z"
        fill="#898989" />
    <path
        d="M25.8723 18.6467C25.8723 19.1779 25.5004 19.6029 25.0754 19.6029H1.80664C1.38164 19.6029 1.00977 19.1779 1.00977 18.6467C1.00977 18.1154 1.38164 17.6904 1.80664 17.6904H25.0754C25.5004 17.6904 25.8723 18.1154 25.8723 18.6467Z"
        fill="#414042" />
    <path
        d="M25.8723 16.6809C25.8723 17.2121 25.5004 17.6371 25.0754 17.6371H1.80664C1.38164 17.6371 1.00977 17.2121 1.00977 16.6809C1.00977 16.1496 1.38164 15.7246 1.80664 15.7246H25.0754C25.5004 15.7246 25.8723 16.1496 25.8723 16.6809Z"
        fill="#616161" />
    <path
        d="M25.5 19.3906C26.3802 19.3906 27.0938 18.6771 27.0938 17.7969C27.0938 16.9167 26.3802 16.2031 25.5 16.2031C24.6198 16.2031 23.9062 16.9167 23.9062 17.7969C23.9062 18.6771 24.6198 19.3906 25.5 19.3906Z"
        fill="#414042" />
    <path
        d="M30.8123 3.93164C30.8123 4.99414 29.9623 5.84414 28.8998 5.84414C27.8373 5.84414 26.9873 4.99414 26.9873 3.93164H30.8123Z"
        fill="#414042" />
</svg>