<svg width="42" height="24" viewBox="0 0 42 24" fill="none" xmlns="http://www.w3.org/2000/svg">
    <path
        d="M9.6068 19.9703C5.26711 19.9703 1.74023 16.3947 1.74023 11.9997C1.74023 7.60468 5.26992 4.02905 9.6068 4.02905C13.9437 4.02905 17.4734 7.60468 17.4734 11.9997C17.4734 16.3947 13.9437 19.9703 9.6068 19.9703V19.9703Z"
        fill="#FAFAFA" />
    <path
        d="M9.6068 4.40405C11.4715 4.40405 13.2574 5.15405 14.6327 6.51718C16.1009 7.9703 16.9109 9.91843 16.9109 11.9997C16.9109 14.0809 16.1009 16.0291 14.6327 17.4822C13.2574 18.8453 11.4715 19.5953 9.6068 19.5953C7.74211 19.5953 5.95617 18.8453 4.58086 17.4822C3.10992 16.0291 2.30273 14.0809 2.30273 11.9997C2.30273 9.91843 3.11273 7.9703 4.58086 6.51718C5.95617 5.15405 7.7393 4.40405 9.6068 4.40405M9.6068 3.65405C4.95211 3.65405 1.17773 7.39093 1.17773 11.9997C1.17773 16.6084 4.95211 20.3453 9.6068 20.3453C14.2615 20.3453 18.0359 16.6084 18.0359 11.9997C18.0359 7.39093 14.2615 3.65405 9.6068 3.65405V3.65405Z"
        fill="#B0BEC5" />
    <path
        d="M9.03375 11.039C8.27437 10.5628 8.44312 9.61778 9.41625 8.92778C9.46687 8.89216 9.5175 8.85841 9.57094 8.82653C9.13781 8.66341 8.6625 8.57153 8.16188 8.57153C6.13969 8.57153 4.5 10.0584 4.5 11.8903C4.5 13.7222 6.13969 15.209 8.16188 15.209C10.1841 15.209 11.8237 13.7222 11.8237 11.8903C11.8237 11.5622 11.7703 11.2434 11.6719 10.9434C10.7606 11.3803 9.67219 11.4384 9.03375 11.039V11.039Z"
        fill="url(#paint0_linear_2910_51)" />
    <path
        d="M30.892 20.3453C35.5472 20.3453 39.321 16.6088 39.321 11.9997C39.321 7.39052 35.5472 3.65405 30.892 3.65405C26.2367 3.65405 22.4629 7.39052 22.4629 11.9997C22.4629 16.6088 26.2367 20.3453 30.892 20.3453Z"
        fill="#EEEEEE" />
    <path
        d="M30.892 19.9703C26.5551 19.9703 23.0254 16.3947 23.0254 11.9997C23.0254 7.60468 26.5551 4.02905 30.892 4.02905C35.2288 4.02905 38.7585 7.60468 38.7585 11.9997C38.7585 16.3947 35.2316 19.9703 30.892 19.9703V19.9703Z"
        fill="#FAFAFA" />
    <path
        d="M30.892 4.40405C32.7566 4.40405 34.5426 5.15405 35.9179 6.51718C37.386 7.9703 38.196 9.91843 38.196 11.9997C38.196 14.0809 37.386 16.0291 35.9179 17.4822C34.5426 18.8453 32.7566 19.5953 30.892 19.5953C29.0273 19.5953 27.2413 18.8453 25.866 17.4822C24.3979 16.0291 23.5879 14.0809 23.5879 11.9997C23.5879 9.91843 24.3979 7.9703 25.866 6.51718C27.2413 5.15405 29.0273 4.40405 30.892 4.40405M30.892 3.65405C26.2373 3.65405 22.4629 7.39093 22.4629 11.9997C22.4629 16.6084 26.2373 20.3453 30.892 20.3453C35.5466 20.3453 39.321 16.6084 39.321 11.9997C39.321 7.39093 35.5466 3.65405 30.892 3.65405V3.65405Z"
        fill="#B0BEC5" />
    <path
        d="M30.3189 11.039C29.5595 10.5628 29.7283 9.61778 30.7014 8.92778C30.752 8.89216 30.8027 8.85841 30.8561 8.82653C30.423 8.66341 29.9477 8.57153 29.447 8.57153C27.4248 8.57153 25.7852 10.0584 25.7852 11.8903C25.7852 13.7222 27.4248 15.209 29.447 15.209C31.4692 15.209 33.1089 13.7222 33.1089 11.8903C33.1089 11.5622 33.0555 11.2434 32.957 10.9434C32.0486 11.3803 30.9573 11.4384 30.3189 11.039V11.039Z"
        fill="url(#paint1_linear_2910_51)" />
    <defs>
        <linearGradient id="paint0_linear_2910_51" x1="8.15991" y1="8.57078" x2="8.15991" y2="15.2096"
            gradientUnits="userSpaceOnUse">
            <stop stop-color="#424242" />
            <stop offset="1" stop-color="#212121" />
        </linearGradient>
        <linearGradient id="paint1_linear_2910_51" x1="29.4468" y1="8.57078" x2="29.4468" y2="15.2096"
            gradientUnits="userSpaceOnUse">
            <stop stop-color="#424242" />
            <stop offset="1" stop-color="#212121" />
        </linearGradient>
    </defs>
</svg>